<svg width="223" height="165" viewBox="0 0 223 165" fill="none" xmlns="http://www.w3.org/2000/svg">
<path d="M218.012 69.8357L142.649 74.5874C141.049 77.739 139.142 80.632 136.927 83.2502L218.546 78.1107C220.825 77.9653 222.57 75.9935 222.425 73.7146C222.279 71.4358 220.324 69.6903 218.028 69.8357H218.012Z" fill="black"/>
<path d="M69.58 70.8704C67.1718 70.5148 17.6836 63.2257 2.65289 56.3407C7.85708 77.9655 29.094 91.6386 65.8465 97.0206C109.694 103.421 129.121 90.0224 137.719 76.123C121.218 78.3534 71.9719 71.2098 69.58 70.8704Z" fill="#FBDE3F"/>
<path d="M9.81274 52.5914C9.4895 54.8379 36.5933 60.6563 70.3558 65.5857C104.118 70.5151 131.755 72.697 132.079 70.4505C132.402 68.2039 105.298 62.3856 71.5356 57.4562C37.7731 52.5268 10.136 50.3449 9.81274 52.5914Z" fill="url(#paint0_linear_433_1333)"/>
<path d="M15.3889 37.9001C18.2631 37.9001 20.5931 35.5701 20.5931 32.6959C20.5931 29.8218 18.2631 27.4918 15.3889 27.4918C12.5147 27.4918 10.1847 29.8218 10.1847 32.6959C10.1847 35.5701 12.5147 37.9001 15.3889 37.9001Z" fill="#4CAF50"/>
<path d="M141.016 52.0262C141.016 53.8687 139.513 55.3718 137.671 55.3718C135.828 55.3718 134.325 53.8687 134.325 52.0262C134.325 50.1837 135.828 48.6807 137.671 48.6807C139.513 48.6807 141.016 50.1837 141.016 52.0262Z" fill="#FF0000"/>
<path d="M39.0986 45.3506C39.0986 47.1931 37.5956 48.6962 35.7531 48.6962C33.9106 48.6962 32.4075 47.1931 32.4075 45.3506C32.4075 43.5081 33.9106 42.0051 35.7531 42.0051C37.5956 42.0051 39.0986 43.5081 39.0986 45.3506Z" fill="#B617B9"/>
<path d="M120.184 30.837C121.683 30.837 122.899 29.6214 122.899 28.1218C122.899 26.6222 121.683 25.4066 120.184 25.4066C118.684 25.4066 117.468 26.6222 117.468 28.1218C117.468 29.6214 118.684 30.837 120.184 30.837Z" fill="#FF3D00"/>
<path d="M70.9864 5.20418C70.9864 8.08103 68.659 10.4084 65.7822 10.4084C62.9053 10.4084 60.578 8.08103 60.578 5.20418C60.578 2.32734 62.9053 0 65.7822 0C68.659 0 70.9864 2.32734 70.9864 5.20418Z" fill="#FFCF5A"/>
<path d="M103.165 42.4582L100.175 42.6037C99.9324 42.6037 99.7061 42.7491 99.5768 42.9592L98.0253 45.529C97.702 46.0624 96.9101 45.9977 96.6838 45.3997L95.6171 42.6037C95.5363 42.3774 95.3262 42.1996 95.0838 42.135L92.1746 41.4562C91.5604 41.3107 91.3826 40.5349 91.8837 40.147L94.211 38.2722C94.405 38.1106 94.5019 37.8682 94.4858 37.6258L94.2272 34.6358C94.1787 34.0216 94.8575 33.6014 95.3747 33.9408L97.8798 35.5893C98.0899 35.7186 98.3485 35.751 98.5748 35.654L101.338 34.4903C101.92 34.2479 102.518 34.7812 102.357 35.3792L101.565 38.2722C101.5 38.5147 101.565 38.7733 101.726 38.9511L103.682 41.2137C104.086 41.6824 103.779 42.4259 103.149 42.4421L103.165 42.4582Z" fill="#06C167"/>
<path d="M64.602 22.4653L63.1798 26.1503C63.0666 26.4574 63.099 26.7968 63.2929 27.0715L65.5556 30.3039C66.0243 30.9827 65.5233 31.904 64.699 31.8555L60.7555 31.6454C60.4322 31.6292 60.109 31.7747 59.915 32.0333L57.5392 35.1849C57.0382 35.8475 56.0038 35.6374 55.7937 34.8455L54.7755 31.0312C54.6947 30.708 54.4523 30.4655 54.1452 30.3524L50.4118 29.0756C49.636 28.8009 49.5067 27.7665 50.2016 27.3139L53.5149 25.1806C53.7896 25.0028 53.9674 24.6957 53.9674 24.3724L54.0321 20.4289C54.0321 19.6046 55.0018 19.1683 55.6321 19.6855L58.6867 22.1744C58.9453 22.3845 59.2847 22.4492 59.5918 22.3522L63.3576 21.2047C64.1495 20.9623 64.8606 21.738 64.5697 22.4977L64.602 22.4653Z" fill="#FF3D00"/>
<path d="M8.68 154.196C7.31733 154.196 6.08533 153.963 4.984 153.496C3.90133 153.029 3.04267 152.357 2.408 151.48C1.77333 150.603 1.44667 149.567 1.428 148.372H5.628C5.684 149.175 5.964 149.809 6.468 150.276C6.99067 150.743 7.7 150.976 8.596 150.976C9.51067 150.976 10.2293 150.761 10.752 150.332C11.2747 149.884 11.536 149.305 11.536 148.596C11.536 148.017 11.3587 147.541 11.004 147.168C10.6493 146.795 10.2013 146.505 9.66 146.3C9.13733 146.076 8.40933 145.833 7.476 145.572C6.20667 145.199 5.17067 144.835 4.368 144.48C3.584 144.107 2.90267 143.556 2.324 142.828C1.764 142.081 1.484 141.092 1.484 139.86C1.484 138.703 1.77333 137.695 2.352 136.836C2.93067 135.977 3.74267 135.324 4.788 134.876C5.83333 134.409 7.028 134.176 8.372 134.176C10.388 134.176 12.0213 134.671 13.272 135.66C14.5413 136.631 15.2413 137.993 15.372 139.748H11.06C11.0227 139.076 10.7333 138.525 10.192 138.096C9.66933 137.648 8.96933 137.424 8.092 137.424C7.32667 137.424 6.71067 137.62 6.244 138.012C5.796 138.404 5.572 138.973 5.572 139.72C5.572 140.243 5.74 140.681 6.076 141.036C6.43067 141.372 6.86 141.652 7.364 141.876C7.88667 142.081 8.61467 142.324 9.548 142.604C10.8173 142.977 11.8533 143.351 12.656 143.724C13.4587 144.097 14.1493 144.657 14.728 145.404C15.3067 146.151 15.596 147.131 15.596 148.344C15.596 149.389 15.3253 150.36 14.784 151.256C14.2427 152.152 13.4493 152.871 12.404 153.412C11.3587 153.935 10.1173 154.196 8.68 154.196ZM22.2145 134.456V146.552C22.2145 147.877 22.5598 148.895 23.2505 149.604C23.9412 150.295 24.9118 150.64 26.1625 150.64C27.4318 150.64 28.4118 150.295 29.1025 149.604C29.7932 148.895 30.1385 147.877 30.1385 146.552V134.456H34.0865V146.524C34.0865 148.185 33.7225 149.595 32.9945 150.752C32.2852 151.891 31.3238 152.749 30.1105 153.328C28.9158 153.907 27.5812 154.196 26.1065 154.196C24.6505 154.196 23.3252 153.907 22.1305 153.328C20.9545 152.749 20.0212 151.891 19.3305 150.752C18.6398 149.595 18.2945 148.185 18.2945 146.524V134.456H22.2145ZM51.4819 140.504C51.4819 141.549 51.2299 142.529 50.7259 143.444C50.2406 144.359 49.4659 145.096 48.4019 145.656C47.3566 146.216 46.0313 146.496 44.4259 146.496H41.1499V154H37.2299V134.456H44.4259C45.9379 134.456 47.2259 134.717 48.2899 135.24C49.3539 135.763 50.1473 136.481 50.6699 137.396C51.2113 138.311 51.4819 139.347 51.4819 140.504ZM44.2579 143.332C45.3406 143.332 46.1433 143.089 46.6659 142.604C47.1886 142.1 47.4499 141.4 47.4499 140.504C47.4499 138.6 46.3859 137.648 44.2579 137.648H41.1499V143.332H44.2579ZM57.5411 137.62V142.52H64.1211V145.628H57.5411V150.808H64.9611V154H53.6211V134.428H64.9611V137.62H57.5411ZM77.9594 154L73.6474 146.384H71.7994V154H67.8794V134.456H75.2154C76.7274 134.456 78.0154 134.727 79.0794 135.268C80.1434 135.791 80.9368 136.509 81.4594 137.424C82.0008 138.32 82.2714 139.328 82.2714 140.448C82.2714 141.736 81.8981 142.903 81.1514 143.948C80.4048 144.975 79.2941 145.684 77.8194 146.076L82.4954 154H77.9594ZM71.7994 143.444H75.0754C76.1394 143.444 76.9328 143.192 77.4554 142.688C77.9781 142.165 78.2394 141.447 78.2394 140.532C78.2394 139.636 77.9781 138.945 77.4554 138.46C76.9328 137.956 76.1394 137.704 75.0754 137.704H71.7994V143.444ZM103.269 134.456V137.62H95.1208V142.632H101.365V145.74H95.1208V154H91.2008V134.456H103.269ZM114.476 154.196C112.647 154.196 110.967 153.767 109.436 152.908C107.906 152.049 106.692 150.864 105.796 149.352C104.9 147.821 104.452 146.095 104.452 144.172C104.452 142.268 104.9 140.56 105.796 139.048C106.692 137.517 107.906 136.323 109.436 135.464C110.967 134.605 112.647 134.176 114.476 134.176C116.324 134.176 118.004 134.605 119.516 135.464C121.047 136.323 122.251 137.517 123.128 139.048C124.024 140.56 124.472 142.268 124.472 144.172C124.472 146.095 124.024 147.821 123.128 149.352C122.251 150.864 121.047 152.049 119.516 152.908C117.986 153.767 116.306 154.196 114.476 154.196ZM114.476 150.696C115.652 150.696 116.688 150.435 117.584 149.912C118.48 149.371 119.18 148.605 119.684 147.616C120.188 146.627 120.44 145.479 120.44 144.172C120.44 142.865 120.188 141.727 119.684 140.756C119.18 139.767 118.48 139.011 117.584 138.488C116.688 137.965 115.652 137.704 114.476 137.704C113.3 137.704 112.255 137.965 111.34 138.488C110.444 139.011 109.744 139.767 109.24 140.756C108.736 141.727 108.484 142.865 108.484 144.172C108.484 145.479 108.736 146.627 109.24 147.616C109.744 148.605 110.444 149.371 111.34 149.912C112.255 150.435 113.3 150.696 114.476 150.696ZM135.817 154.196C133.988 154.196 132.308 153.767 130.777 152.908C129.246 152.049 128.033 150.864 127.137 149.352C126.241 147.821 125.793 146.095 125.793 144.172C125.793 142.268 126.241 140.56 127.137 139.048C128.033 137.517 129.246 136.323 130.777 135.464C132.308 134.605 133.988 134.176 135.817 134.176C137.665 134.176 139.345 134.605 140.857 135.464C142.388 136.323 143.592 137.517 144.469 139.048C145.365 140.56 145.813 142.268 145.813 144.172C145.813 146.095 145.365 147.821 144.469 149.352C143.592 150.864 142.388 152.049 140.857 152.908C139.326 153.767 137.646 154.196 135.817 154.196ZM135.817 150.696C136.993 150.696 138.029 150.435 138.925 149.912C139.821 149.371 140.521 148.605 141.025 147.616C141.529 146.627 141.781 145.479 141.781 144.172C141.781 142.865 141.529 141.727 141.025 140.756C140.521 139.767 139.821 139.011 138.925 138.488C138.029 137.965 136.993 137.704 135.817 137.704C134.641 137.704 133.596 137.965 132.681 138.488C131.785 139.011 131.085 139.767 130.581 140.756C130.077 141.727 129.825 142.865 129.825 144.172C129.825 145.479 130.077 146.627 130.581 147.616C131.085 148.605 131.785 149.371 132.681 149.912C133.596 150.435 134.641 150.696 135.817 150.696ZM154.917 134.456C156.971 134.456 158.772 134.857 160.321 135.66C161.889 136.463 163.093 137.611 163.933 139.104C164.792 140.579 165.221 142.296 165.221 144.256C165.221 146.216 164.792 147.933 163.933 149.408C163.093 150.864 161.889 151.993 160.321 152.796C158.772 153.599 156.971 154 154.917 154H148.085V134.456H154.917ZM154.777 150.668C156.831 150.668 158.417 150.108 159.537 148.988C160.657 147.868 161.217 146.291 161.217 144.256C161.217 142.221 160.657 140.635 159.537 139.496C158.417 138.339 156.831 137.76 154.777 137.76H152.005V150.668H154.777ZM176.584 154.196C174.754 154.196 173.074 153.767 171.544 152.908C170.013 152.049 168.8 150.864 167.904 149.352C167.008 147.821 166.56 146.095 166.56 144.172C166.56 142.268 167.008 140.56 167.904 139.048C168.8 137.517 170.013 136.323 171.544 135.464C173.074 134.605 174.754 134.176 176.584 134.176C178.432 134.176 180.112 134.605 181.624 135.464C183.154 136.323 184.358 137.517 185.236 139.048C186.132 140.56 186.58 142.268 186.58 144.172C186.58 146.095 186.132 147.821 185.236 149.352C184.358 150.864 183.154 152.049 181.624 152.908C180.093 153.767 178.413 154.196 176.584 154.196ZM176.584 150.696C177.76 150.696 178.796 150.435 179.692 149.912C180.588 149.371 181.288 148.605 181.792 147.616C182.296 146.627 182.548 145.479 182.548 144.172C182.548 142.865 182.296 141.727 181.792 140.756C181.288 139.767 180.588 139.011 179.692 138.488C178.796 137.965 177.76 137.704 176.584 137.704C175.408 137.704 174.362 137.965 173.448 138.488C172.552 139.011 171.852 139.767 171.348 140.756C170.844 141.727 170.592 142.865 170.592 144.172C170.592 145.479 170.844 146.627 171.348 147.616C171.852 148.605 172.552 149.371 173.448 149.912C174.362 150.435 175.408 150.696 176.584 150.696ZM197.924 154.196C196.095 154.196 194.415 153.767 192.884 152.908C191.353 152.049 190.14 150.864 189.244 149.352C188.348 147.821 187.9 146.095 187.9 144.172C187.9 142.268 188.348 140.56 189.244 139.048C190.14 137.517 191.353 136.323 192.884 135.464C194.415 134.605 196.095 134.176 197.924 134.176C199.772 134.176 201.452 134.605 202.964 135.464C204.495 136.323 205.699 137.517 206.576 139.048C207.472 140.56 207.92 142.268 207.92 144.172C207.92 146.095 207.472 147.821 206.576 149.352C205.699 150.864 204.495 152.049 202.964 152.908C201.433 153.767 199.753 154.196 197.924 154.196ZM197.924 150.696C199.1 150.696 200.136 150.435 201.032 149.912C201.928 149.371 202.628 148.605 203.132 147.616C203.636 146.627 203.888 145.479 203.888 144.172C203.888 142.865 203.636 141.727 203.132 140.756C202.628 139.767 201.928 139.011 201.032 138.488C200.136 137.965 199.1 137.704 197.924 137.704C196.748 137.704 195.703 137.965 194.788 138.488C193.892 139.011 193.192 139.767 192.688 140.756C192.184 141.727 191.932 142.865 191.932 144.172C191.932 145.479 192.184 146.627 192.688 147.616C193.192 148.605 193.892 149.371 194.788 149.912C195.703 150.435 196.748 150.696 197.924 150.696Z" fill="url(#paint1_linear_433_1333)"/>
<defs>
<linearGradient id="paint0_linear_433_1333" x1="70.9457" y1="51.707" x2="70.9457" y2="71.3348" gradientUnits="userSpaceOnUse">
<stop stop-color="#FF725E"/>
<stop offset="1" stop-color="#FFE033"/>
</linearGradient>
<linearGradient id="paint1_linear_433_1333" x1="106" y1="123" x2="106" y2="165" gradientUnits="userSpaceOnUse">
<stop stop-color="#FF725E"/>
<stop offset="1" stop-color="#FFE033"/>
</linearGradient>
</defs>
</svg>
