<svg width="17" height="17" viewBox="0 0 17 17" fill="none" xmlns="http://www.w3.org/2000/svg">
<path d="M1 1L16 16" stroke="#7D7D7D" stroke-width="1.5" stroke-linecap="round" stroke-linejoin="round"/>
<path d="M4.53458 4.54195C2.24859 6.09645 1 8.5 1 8.5C1 8.5 3.72727 13.75 8.5 13.75C10.0377 13.75 11.363 13.2051 12.4533 12.4663M7.75 3.29366C7.99405 3.2651 8.2441 3.25 8.5 3.25C13.2727 3.25 16 8.5 16 8.5C16 8.5 15.4812 9.49877 14.5 10.6251" stroke="#7D7D7D" stroke-width="1.5" stroke-linecap="round" stroke-linejoin="round"/>
<path d="M9.99997 10.177C9.60187 10.5333 9.07627 10.75 8.49997 10.75C7.25729 10.75 6.24997 9.74263 6.24997 8.49996C6.24997 7.88218 6.49892 7.32261 6.90196 6.91602" stroke="#7D7D7D" stroke-width="1.5" stroke-linecap="round" stroke-linejoin="round"/>
</svg>
