<svg width="317" height="304" viewBox="0 0 317 304" fill="none" xmlns="http://www.w3.org/2000/svg">
<g clip-path="url(#clip0_98_343)">
<path d="M109.713 184.716C109.713 184.716 102.774 179.876 99.5957 180.753C96.41 181.631 92.3184 186.111 92.3184 186.111C92.3184 186.111 100.401 183.781 102.846 184.27C105.284 184.752 109.721 184.716 109.721 184.716H109.713Z" fill="#E0E0E0"/>
<path d="M112.043 186.463C111.036 188.75 109.289 190.655 108.318 192.956C107.203 195.581 107.189 198.652 108.268 201.291C110.116 199.356 111.216 196.804 111.806 194.193C112.403 191.583 112.496 189.447 112.611 186.772L112.043 186.463Z" fill="#E0E0E0"/>
<path d="M110.979 185.866C111.295 184.931 103.443 185.341 100.94 188.369C98.4378 191.396 95.9354 194.689 98.0423 202.334C98.0423 202.334 102.781 194.049 102.781 194.179C102.781 194.308 110.346 187.714 110.979 185.873V185.866Z" fill="#E0E0E0"/>
<path d="M111.044 185.765C110.317 186.046 117.451 188.218 120.744 188.484C124.038 188.75 126.03 187.65 126.03 187.65C126.03 187.65 121.248 181.803 111.044 185.758V185.765Z" fill="#E0E0E0"/>
<path d="M147.092 215.831C147.092 215.831 150.529 214.436 151.493 215.4C152.457 216.363 156.433 221.627 160.187 221.951C160.187 221.951 156.75 214.652 153.636 213.472C151.587 212.696 147.085 215.831 147.085 215.831H147.092Z" fill="#E0E0E0"/>
<path d="M147.976 215.435C147.976 215.435 147.84 212.861 146.545 211.502C145.251 210.143 140.577 209.215 140.577 209.215C140.577 209.215 142.26 211.919 143.985 213.228C145.711 214.544 147.976 215.435 147.976 215.435Z" fill="#E0E0E0"/>
<path d="M147.969 215.292C147.969 215.292 145.575 215.256 143.885 218.247C142.195 221.239 141.275 224.992 141.418 224.748C141.562 224.496 145.934 222.583 147.078 220.167C148.228 217.744 147.969 215.299 147.969 215.299V215.292Z" fill="#E0E0E0"/>
<path d="M148.516 215.292C148.516 215.292 148.948 220.987 149.911 221.95C150.875 222.914 152.27 226.459 152.27 226.459C152.27 226.459 154.42 221.303 153.233 218.837C152.054 216.37 148.509 215.284 148.509 215.284L148.516 215.292Z" fill="#E0E0E0"/>
<path d="M127.648 226.287C127.374 226.697 121.859 230.968 121.032 233.039C120.205 235.11 120.895 238.274 121.032 239.238C121.168 240.201 125.994 238.001 126.821 234.276C127.648 230.558 127.648 226.287 127.648 226.287Z" fill="#E0E0E0"/>
<path d="M128.719 223.087C128.719 223.777 128.806 230.529 130.575 232.881C132.344 235.232 135.637 237.742 135.637 237.742C135.637 237.742 136.802 229.206 134.343 226.574C131.884 223.935 128.719 223.087 128.719 223.087Z" fill="#E0E0E0"/>
<path d="M127.914 224.252C127.511 224.158 122.527 223.684 120.154 226.524C117.781 229.365 116.458 232.586 116.458 232.586C116.458 232.586 123.994 228.847 125.382 227.193C126.763 225.539 127.921 224.252 127.921 224.252H127.914Z" fill="#E0E0E0"/>
<path d="M131.337 221.16C131.337 221.16 133.364 219.657 135.608 221.052C137.852 222.447 141.569 227.862 141.569 227.862C141.569 227.862 137.01 227.567 134.608 225.287C132.207 223.008 131.329 221.16 131.329 221.16H131.337Z" fill="#E0E0E0"/>
<path d="M128.101 221.994C128.101 221.994 125.21 219.534 123.002 218.988C120.795 218.441 114.323 220.052 114.323 220.052C114.323 220.052 117.357 222.375 121.83 221.986C126.31 221.605 128.101 221.986 128.101 221.986V221.994Z" fill="#E0E0E0"/>
<path d="M118.508 247.018C118.508 247.018 116.444 251.017 118.508 253.217C120.571 255.425 121.693 259.833 121.693 259.833C121.693 259.833 125.26 256.388 123.469 252.527C121.679 248.665 118.508 247.018 118.508 247.018Z" fill="#E0E0E0"/>
<path d="M115.185 247.105C114.632 247.378 111.051 252.203 110.777 255.648C110.504 259.092 110.224 265.018 110.777 264.608C111.331 264.198 115.322 260.473 116.429 256.892C117.53 253.311 115.193 247.112 115.193 247.112L115.185 247.105Z" fill="#E0E0E0"/>
<path d="M113.841 246.731C113.287 246.867 108.052 245.904 105.161 249.621C102.271 253.339 100.063 258.718 100.063 258.718C100.063 258.718 107.642 254.842 109.433 252.714C111.223 250.585 113.841 246.731 113.841 246.731Z" fill="#E0E0E0"/>
<path d="M143.41 240.115C143.41 240.115 141.835 244.804 143.41 248.931C144.985 253.066 146.776 255.82 146.776 255.82C146.776 255.82 149.106 247.55 147.595 245.35C146.085 243.142 143.41 240.115 143.41 240.115Z" fill="#E0E0E0"/>
<path d="M144.273 239.619C144.834 240.137 151.292 249.413 155.685 250.24C160.079 251.067 156.376 249.888 156.376 249.888C156.376 249.888 154.988 243.632 153.025 241.05C151.054 238.461 144.28 239.619 144.28 239.619H144.273Z" fill="#E0E0E0"/>
<path d="M143.295 239.453C143.295 239.453 148.063 236.146 149.925 235.304C151.831 234.441 157.958 235.57 157.958 235.57C157.958 235.57 150.472 239.468 148.667 239.058C146.869 238.648 143.295 240.237 143.295 240.237" fill="#E0E0E0"/>
<path d="M159.871 194.344C159.871 194.344 155.736 198.724 156.282 202.146C156.829 205.569 158.051 208.848 158.051 208.848L159.871 202.83V194.344Z" fill="#E0E0E0"/>
<path d="M160.431 193.467C160.431 193.467 159.475 200.169 161.388 202.909C163.301 205.649 165.904 210.848 166.177 210.438C166.45 210.028 170.42 206.468 167.543 201.406C164.667 196.343 160.424 193.467 160.424 193.467H160.431Z" fill="#E0E0E0"/>
<path d="M159.043 194.653C159.043 194.653 152.442 192.741 151.493 195.883C150.544 199.033 149.724 201.765 149.724 201.765C149.724 201.765 151.924 199.407 154.384 197.918C156.843 196.43 159.043 194.646 159.043 194.646V194.653Z" fill="#E0E0E0"/>
<path d="M129.438 196.43C129.438 196.43 129.633 196.25 129.978 195.962C131.538 194.632 136.09 190.972 138.391 191.533C141.189 192.216 145.05 193.949 145.05 193.949C145.05 193.949 135.076 199.134 129.446 196.423L129.438 196.43Z" fill="#E0E0E0"/>
<path d="M130.776 196.473C130.797 195.977 127.777 195.171 125.123 197.911C122.47 200.651 122.06 202.326 122.06 202.326C122.06 202.326 130.589 201.19 130.768 196.473H130.776Z" fill="#E0E0E0"/>
<path d="M130.301 197.026C130.301 197.026 127.266 200.514 129.596 203.937C131.919 207.36 133.94 210.639 133.94 210.639C133.94 210.639 135.133 207.561 133.94 203.829C132.746 200.097 130.301 197.019 130.301 197.019V197.026Z" fill="#E0E0E0"/>
<path d="M141.649 205.713C141.512 204.879 142.612 198.048 133.573 198.724H132.746C132.746 198.724 137.068 205.699 138.06 207.892C139.053 210.078 139.793 210.769 140.858 211.725C141.922 212.681 141.785 206.547 141.649 205.713Z" fill="#E0E0E0"/>
<path d="M143.396 239.835C143.526 237.706 142.727 235.542 141.253 234.003C141.117 233.859 140.915 233.708 140.728 233.787C140.606 233.844 140.548 233.981 140.505 234.111C140.124 235.347 140.405 236.721 141.009 237.864C141.613 239.008 142.526 239.964 143.454 240.87" fill="#E0E0E0"/>
<path d="M117.918 246.134C116.307 243.171 113.682 240.777 110.59 239.432C110.396 239.346 110.188 239.267 109.979 239.31C109.656 239.374 109.461 239.712 109.425 240.043C109.339 240.705 109.72 241.338 110.123 241.87C112.079 244.451 115.063 246.235 118.263 246.738" fill="#E0E0E0"/>
<path d="M154.139 236.045C154.139 236.045 153.672 236.074 152.845 236.175C152.018 236.282 150.824 236.512 149.429 237.052C148.041 237.591 146.459 238.432 144.885 239.612C143.295 240.784 141.706 242.28 140.074 243.876C136.788 247.069 133.897 250.039 131.89 252.268C130.884 253.383 130.093 254.296 129.539 254.936C129.28 255.231 129.072 255.468 128.906 255.662C128.755 255.828 128.676 255.907 128.669 255.899C128.662 255.899 128.726 255.799 128.856 255.619C128.985 255.439 129.179 255.18 129.446 254.85C129.963 254.188 130.733 253.246 131.718 252.11C133.681 249.837 136.557 246.832 139.844 243.639C141.476 242.035 143.087 240.539 144.705 239.36C146.316 238.181 147.934 237.339 149.35 236.822C150.774 236.297 151.989 236.103 152.831 236.031C153.248 235.995 153.579 235.988 153.801 236.002C154.024 236.002 154.139 236.016 154.139 236.031V236.045Z" fill="#E0E0E0"/>
<path d="M128.496 253.929C128.446 253.965 127.906 253.03 126.734 251.779C125.569 250.535 123.693 249.01 121.262 248.054C118.831 247.098 116.415 246.932 114.718 247.054C113.007 247.17 111.978 247.486 111.964 247.428C111.964 247.407 112.208 247.313 112.676 247.184C113.143 247.054 113.834 246.911 114.697 246.824C116.415 246.637 118.889 246.767 121.384 247.745C123.872 248.723 125.778 250.312 126.914 251.614C127.489 252.268 127.899 252.843 128.151 253.253C128.41 253.663 128.525 253.907 128.511 253.915L128.496 253.929Z" fill="#E0E0E0"/>
<path d="M130.272 196.379C130.272 196.379 130.272 196.444 130.272 196.574C130.258 196.725 130.244 196.912 130.222 197.149C130.172 197.674 130.1 198.414 130.006 199.356C129.812 201.276 129.532 204.045 129.222 207.475C128.611 214.335 127.899 223.827 127.914 234.334C127.95 244.84 128.683 254.339 129.215 261.199C129.496 264.615 129.719 267.383 129.877 269.332C129.949 270.274 130.006 271.015 130.049 271.547C130.064 271.784 130.078 271.979 130.085 272.122C130.085 272.252 130.085 272.316 130.085 272.316C130.085 272.316 130.071 272.252 130.049 272.122C130.035 271.979 130.006 271.784 129.977 271.547C129.92 271.022 129.841 270.281 129.747 269.339C129.553 267.419 129.287 264.651 128.978 261.214C128.388 254.353 127.612 244.854 127.576 234.326C127.561 223.806 128.316 214.299 128.985 207.446C129.323 204.016 129.639 201.248 129.87 199.335C129.992 198.393 130.085 197.659 130.15 197.134C130.186 196.897 130.208 196.71 130.229 196.566C130.251 196.437 130.265 196.372 130.265 196.372L130.272 196.379Z" fill="#E0E0E0"/>
<path d="M150.875 214.875C150.875 214.875 150.537 214.947 149.911 215.019C149.292 215.083 148.394 215.205 147.293 215.385C145.093 215.73 142.073 216.392 138.866 217.514C135.658 218.643 132.89 220.009 130.948 221.109C129.977 221.656 129.201 222.123 128.676 222.461C128.144 222.792 127.849 222.965 127.835 222.95C127.82 222.929 128.093 222.72 128.604 222.361C129.107 221.994 129.87 221.498 130.826 220.915C132.746 219.757 135.515 218.348 138.75 217.212C141.986 216.083 145.035 215.457 147.25 215.162C148.358 215.011 149.264 214.932 149.889 214.903C150.515 214.868 150.86 214.86 150.86 214.882L150.875 214.875Z" fill="#E0E0E0"/>
<path d="M128.568 211.819C128.568 211.819 128.525 211.696 128.482 211.452C128.432 211.171 128.374 210.826 128.295 210.388C128.223 209.927 128.137 209.359 127.964 208.719C127.799 208.079 127.669 207.331 127.396 206.54C127.274 206.145 127.137 205.728 127.001 205.289C126.864 204.858 126.67 204.426 126.49 203.966C126.159 203.045 125.677 202.111 125.203 201.118C124.175 199.17 122.866 197.12 121.269 195.143C118.048 191.188 114.388 188.311 111.641 186.42C110.965 185.924 110.31 185.55 109.757 185.176C109.203 184.809 108.707 184.521 108.304 184.284C107.93 184.054 107.621 183.874 107.384 183.723C107.175 183.594 107.067 183.522 107.074 183.508C107.074 183.5 107.197 183.551 107.419 183.666C107.671 183.795 107.988 183.968 108.369 184.169C108.779 184.392 109.289 184.665 109.85 185.018C110.411 185.37 111.08 185.737 111.763 186.226C114.553 188.074 118.264 190.943 121.521 194.934C123.132 196.933 124.448 199.004 125.469 200.982C125.944 201.988 126.418 202.93 126.742 203.872C126.914 204.34 127.108 204.771 127.238 205.217C127.367 205.656 127.497 206.08 127.612 206.483C127.878 207.281 127.993 208.036 128.137 208.683C128.295 209.33 128.36 209.906 128.417 210.366C128.468 210.805 128.511 211.157 128.539 211.437C128.561 211.682 128.568 211.811 128.561 211.811L128.568 211.819Z" fill="#E0E0E0"/>
<path d="M160.906 194.028C160.906 194.028 160.791 194.093 160.561 194.179C160.295 194.28 159.964 194.402 159.547 194.56C158.663 194.877 157.397 195.366 155.836 195.984C152.723 197.228 148.487 199.119 144 201.586C139.52 204.059 135.651 206.627 132.933 208.59C131.574 209.568 130.488 210.38 129.74 210.956C129.388 211.222 129.1 211.437 128.877 211.61C128.676 211.754 128.568 211.826 128.561 211.819C128.554 211.811 128.647 211.718 128.834 211.56C129.05 211.38 129.323 211.143 129.661 210.862C130.38 210.258 131.445 209.41 132.796 208.403C135.486 206.389 139.34 203.779 143.842 201.298C148.343 198.824 152.608 196.962 155.75 195.768C157.318 195.171 158.605 194.718 159.504 194.438C159.928 194.308 160.266 194.201 160.539 194.114C160.777 194.042 160.906 194.014 160.906 194.021V194.028Z" fill="#E0E0E0"/>
<path d="M141.821 303.151H115.862L113.151 271.439H144.863L141.821 303.151Z" fill="#E0E0E0"/>
<path d="M146.963 271.439H111.137V276.314H146.963V271.439Z" fill="#E0E0E0"/>
<path d="M146.732 276.329C146.732 276.422 138.722 276.494 128.841 276.494C118.961 276.494 110.95 276.422 110.95 276.329C110.95 276.235 118.961 276.164 128.841 276.164C138.722 276.164 146.732 276.235 146.732 276.329Z" fill="#EBEBEB"/>
<path d="M255.925 303.629L277.972 303.803L278.191 275.974L256.144 275.801L255.925 303.629Z" fill="#EBEBEB"/>
<path d="M269.549 276.804L269.16 303.748L265.68 303.719L266.42 276.775L269.549 276.804Z" fill="#FAFAFA"/>
<path d="M243.474 276.595L256.116 276.696L278.163 276.868L256.094 279.773L255.907 303.64L243.265 303.547L243.474 276.595Z" fill="#E0E0E0"/>
<path d="M250.355 276.652L249.852 303.597L246.098 303.568L246.717 276.624L250.355 276.652Z" fill="#FAFAFA"/>
<path d="M260.365 268.447C260.365 268.62 259.999 268.793 259.323 268.958C258.647 269.123 257.654 269.282 256.403 269.346C255.777 269.375 255.08 269.382 254.325 269.325C253.951 269.296 253.555 269.253 253.153 269.195C252.743 269.131 252.362 269.066 251.866 268.922C251.621 268.843 251.355 268.75 251.075 268.577C250.794 268.412 250.478 268.167 250.24 267.793C249.989 267.419 249.881 266.952 249.881 266.578C249.874 266.204 249.931 265.895 249.989 265.643C250.197 264.759 250.413 263.845 250.837 262.853C251.053 262.364 251.319 261.882 251.643 261.429C251.815 261.206 251.981 260.998 252.189 260.789C252.398 260.573 252.642 260.372 252.923 260.192C253.21 260.02 253.541 259.869 253.922 259.79C254.296 259.71 254.713 259.725 255.066 259.818C255.778 260.005 256.223 260.365 256.576 260.652C257.913 261.781 258.862 263.061 259.474 264.212C260.085 265.37 260.358 266.391 260.452 267.11C260.538 267.829 260.452 268.239 260.293 268.275C259.934 268.361 259.416 266.937 258.014 265.154C257.309 264.27 256.374 263.299 255.188 262.443C254.907 262.242 254.663 262.119 254.548 262.112C254.49 262.112 254.469 262.112 254.426 262.127C254.382 262.141 254.318 262.17 254.231 262.227C254.145 262.285 254.052 262.371 253.951 262.479C253.85 262.587 253.735 262.731 253.642 262.867C253.44 263.155 253.268 263.478 253.11 263.838C252.8 264.55 252.57 265.398 252.355 266.204C252.311 266.376 252.29 266.499 252.29 266.549V266.578C252.275 266.578 252.24 266.585 252.225 266.592C252.146 266.614 252.124 266.635 252.182 266.599C252.189 266.599 252.24 266.556 252.261 266.542C252.261 266.542 252.261 266.542 252.261 266.556C252.268 266.571 252.29 266.592 252.326 266.614C252.391 266.664 252.506 266.722 252.642 266.779C252.908 266.887 253.289 266.988 253.627 267.074C253.965 267.167 254.311 267.239 254.634 267.304C255.296 267.434 255.928 267.534 256.511 267.613C257.683 267.772 258.661 267.872 259.337 268.009C260.02 268.138 260.401 268.282 260.401 268.455L260.365 268.447Z" fill="#E0E0E0"/>
<path d="M259.912 268.649C259.855 268.297 261.501 267.786 264.076 267.031C265.356 266.643 266.859 266.168 268.412 265.478C268.793 265.312 269.145 265.125 269.354 264.953C269.455 264.874 269.505 264.795 269.491 264.802C269.476 264.802 269.462 264.902 269.462 264.852C269.455 264.809 269.404 264.672 269.304 264.464C269.196 264.248 269.095 264.025 268.987 263.809C268.779 263.378 268.556 262.975 268.318 262.608C268.074 262.242 267.822 261.933 267.535 261.674C267.398 261.544 267.24 261.429 267.089 261.321C266.952 261.228 266.815 261.156 266.686 261.106C266.427 261.005 266.24 260.99 266.039 261.048C265.83 261.098 265.55 261.264 265.262 261.501C263.997 262.558 262.975 263.73 262.249 264.773C260.775 266.873 260.38 268.519 260.013 268.462C259.855 268.44 259.732 267.995 259.79 267.182C259.847 266.377 260.106 265.212 260.739 263.903C261.372 262.587 262.35 261.156 263.759 259.797C264.14 259.444 264.629 259.049 265.32 258.812C266.017 258.567 266.844 258.603 267.499 258.84C267.837 258.955 268.139 259.114 268.419 259.293C268.678 259.466 268.93 259.653 269.167 259.862C269.642 260.279 270.037 260.76 270.368 261.264C270.699 261.767 270.965 262.271 271.188 262.752C271.295 262.99 271.403 263.227 271.511 263.464C271.619 263.716 271.763 264.032 271.835 264.478C271.914 264.91 271.835 265.514 271.59 265.945C271.353 266.377 271.044 266.643 270.771 266.844C270.217 267.239 269.713 267.426 269.26 267.599C267.47 268.253 265.809 268.57 264.428 268.757C261.66 269.095 259.955 268.994 259.905 268.678L259.912 268.649Z" fill="#EBEBEB"/>
<path d="M239.471 276.553L271.88 276.808L271.952 267.596L239.543 267.342L239.471 276.553Z" fill="#E0E0E0"/>
<path d="M251.387 276.649L280.682 276.88L280.755 267.668L251.459 267.438L251.387 276.649Z" fill="#EBEBEB"/>
<path d="M271.749 267.606L271.54 276.861L268.125 276.789L268.369 267.578L271.749 267.606Z" fill="#FAFAFA"/>
<path d="M247.479 267.462L247.148 276.631L243.395 276.602L243.596 267.391L247.479 267.462Z" fill="#FAFAFA"/>
<path d="M280.327 303.701L292.817 303.799L292.941 288.029L280.451 287.931L280.327 303.701Z" fill="#EBEBEB"/>
<path d="M288.044 288.51L287.821 303.777L285.844 303.763L286.268 288.496L288.044 288.51Z" fill="#FAFAFA"/>
<path d="M273.259 288.396L280.429 288.446L292.92 288.547L280.415 290.193L280.314 303.72L273.144 303.662L273.259 288.396Z" fill="#E0E0E0"/>
<path d="M277.164 288.424L276.876 303.691L274.755 303.676L275.1 288.41L277.164 288.424Z" fill="#FAFAFA"/>
<path d="M282.838 283.779C282.838 284.009 282.018 284.297 280.587 284.412C279.854 284.455 279.02 284.462 277.97 284.196C277.689 284.102 277.294 283.973 276.956 283.491C276.798 283.254 276.726 282.952 276.726 282.722C276.726 282.484 276.754 282.297 276.79 282.146C276.905 281.636 277.028 281.118 277.279 280.536C277.402 280.248 277.56 279.96 277.754 279.702C277.948 279.45 278.171 279.184 278.531 278.961C278.861 278.738 279.415 278.601 279.875 278.731C280.321 278.853 280.587 279.069 280.789 279.241C281.558 279.903 282.097 280.644 282.435 281.32C283.111 282.686 283.011 283.657 282.795 283.685C282.543 283.743 282.212 282.959 281.4 281.981C280.997 281.499 280.465 280.967 279.803 280.507C279.652 280.399 279.523 280.349 279.501 280.356V280.327V280.37C279.501 280.37 279.487 280.385 279.458 280.406C279.393 280.449 279.278 280.572 279.171 280.723C279.07 280.874 278.976 281.046 278.89 281.24C278.725 281.622 278.595 282.103 278.466 282.549L278.43 282.707C278.43 282.707 278.344 282.707 278.315 282.715C278.272 282.715 278.243 282.729 278.214 282.736C278.171 282.751 278.157 282.758 278.185 282.736C278.207 282.722 278.25 282.693 278.308 282.628L278.344 282.585C278.344 282.585 278.344 282.592 278.358 282.6C278.38 282.621 278.437 282.65 278.502 282.679C279.192 282.93 280.012 283.081 280.645 283.182C281.961 283.376 282.845 283.527 282.845 283.779H282.838Z" fill="#E0E0E0"/>
<path d="M282.579 283.887C282.536 283.621 283.463 283.261 284.902 282.794C285.614 282.549 286.455 282.269 287.311 281.873C287.519 281.78 287.706 281.672 287.785 281.6C287.828 281.564 287.828 281.542 287.785 281.593C287.749 281.636 287.735 281.765 287.742 281.78C287.663 281.607 287.577 281.435 287.49 281.255C287.375 281.018 287.253 280.802 287.124 280.608C286.994 280.414 286.865 280.255 286.721 280.126C286.577 279.989 286.419 279.881 286.325 279.845C286.218 279.802 286.182 279.802 286.117 279.809C286.045 279.817 285.916 279.889 285.757 280.011C285.053 280.579 284.47 281.219 284.053 281.78C283.197 282.916 282.91 283.815 282.629 283.779C282.392 283.772 282.191 282.671 282.888 281.104C283.233 280.327 283.787 279.493 284.6 278.688C284.823 278.479 285.125 278.227 285.563 278.076C286.009 277.918 286.541 277.94 286.958 278.091C287.167 278.163 287.361 278.263 287.534 278.371C287.692 278.479 287.843 278.587 287.987 278.716C288.274 278.968 288.512 279.263 288.713 279.558C288.907 279.86 289.065 280.155 289.195 280.435L289.382 280.845C289.446 280.989 289.54 281.19 289.583 281.485C289.633 281.773 289.583 282.182 289.418 282.47C289.252 282.758 289.058 282.93 288.885 283.06C288.54 283.304 288.238 283.412 287.972 283.513C286.937 283.88 285.98 284.045 285.182 284.124C283.593 284.275 282.622 284.153 282.579 283.901V283.887Z" fill="#E0E0E0"/>
<path d="M270.998 288.361L289.364 288.505L289.405 283.284L271.039 283.14L270.998 288.361Z" fill="#E0E0E0"/>
<path d="M277.759 288.408L294.355 288.538L294.396 283.318L277.8 283.187L277.759 288.408Z" fill="#EBEBEB"/>
<path d="M289.288 283.297L289.173 288.539L287.232 288.503L287.368 283.283L289.288 283.297Z" fill="#FAFAFA"/>
<path d="M275.532 283.218L275.345 288.41L273.216 288.395L273.331 283.175L275.532 283.218Z" fill="#FAFAFA"/>
<path d="M105.075 0H9.88049V157.569H105.075V0Z" fill="#E0E0E0"/>
<path d="M101.911 0H6.71674V157.569H101.911V0Z" fill="#EBEBEB"/>
<path d="M97.8481 3.19287H10.765V154.369H97.8481V3.19287Z" fill="#FAFAFA"/>
<path d="M80.8992 22.8386H27.3478V134.731H80.8992V22.8386Z" fill="#EBEBEB"/>
<path d="M27.3476 95.137C27.2253 84.6885 36.624 74.4844 46.9718 73.0246C51.9049 72.3271 57.1543 73.3051 61.7637 71.4139C69.9974 68.0413 72.615 57.1037 80.899 53.8606L81.2801 134.731H27.3476V95.137Z" fill="#E0E0E0"/>
<path d="M316.743 303.813C316.743 303.914 245.832 304 158.375 304C70.918 304 -0.00689697 303.914 -0.00689697 303.813C-0.00689697 303.712 70.8893 303.626 158.375 303.626C245.861 303.626 316.743 303.712 316.743 303.813Z" fill="#263238"/>
<path d="M287.519 252.095L139.19 252.016C134.602 252.016 130.884 248.291 130.891 243.711L131.006 23.6153C131.006 19.0275 134.731 15.3097 139.312 15.3169L287.641 15.396C292.229 15.396 295.947 19.121 295.939 23.7088L295.824 243.804C295.824 248.392 292.099 252.11 287.512 252.102L287.519 252.095Z" fill="#263238"/>
<path d="M290.388 31.7123H135.846V229.393H290.388V31.7123Z" fill="white"/>
<path d="M219.693 240.165C219.693 243.66 216.86 246.494 213.358 246.494C209.863 246.494 207.03 243.653 207.03 240.158C207.03 236.663 209.863 233.83 213.365 233.83C216.86 233.83 219.693 236.671 219.693 240.165Z" fill="#455A64"/>
<path d="M237.433 22.1698H189.512C189.028 22.1698 188.635 22.5626 188.635 23.0471V23.91C188.635 24.3945 189.028 24.7873 189.512 24.7873H237.433C237.918 24.7873 238.311 24.3945 238.311 23.91V23.0471C238.311 22.5626 237.918 22.1698 237.433 22.1698Z" fill="#455A64"/>
<path d="M283.808 202.039C282.78 202.039 281.953 201.204 281.953 200.183L282.025 59.8436C282.025 58.8152 282.859 57.9883 283.88 57.9883C284.909 57.9883 285.735 58.8224 285.735 59.8436L285.664 200.183C285.664 201.212 284.829 202.039 283.808 202.039Z" fill="#E0E0E0"/>
<path d="M245.487 47.885C245.487 47.9857 231.149 48.0648 213.466 48.0576C195.776 48.0504 181.444 47.9569 181.444 47.8563C181.444 47.7556 195.776 47.6765 213.466 47.6837C231.149 47.6909 245.487 47.7844 245.487 47.885Z" fill="#263238"/>
<path d="M150.861 51.4444C150.861 51.4444 150.932 51.4372 151.069 51.43C151.234 51.43 151.421 51.4157 151.644 51.4085C152.198 51.3941 152.896 51.3797 153.759 51.3581L153.694 51.4229C153.687 50.9554 153.679 50.4377 153.665 49.8912C153.665 49.6035 153.643 49.3375 153.665 49.0067C153.723 48.6759 154.017 48.3811 154.384 48.3451C154.729 48.3451 155.024 48.3235 155.398 48.3451C155.786 48.3954 156.11 48.7622 156.103 49.1721C156.11 49.8912 156.117 50.6318 156.124 51.4085L156.017 51.3006C156.872 51.2934 157.764 51.2862 158.684 51.2719L158.569 51.3869C158.562 50.3154 158.548 49.2008 158.541 48.0647C158.541 47.7842 158.541 47.4966 158.541 47.2161C158.541 46.9572 158.39 46.7919 158.167 46.5977C157.771 46.2094 157.383 45.8283 157.002 45.4471C156.621 45.0732 156.247 44.6993 155.88 44.3325C155.693 44.1528 155.513 43.973 155.333 43.7932C155.146 43.6134 155.003 43.4265 154.787 43.3833C154.578 43.3258 154.355 43.3689 154.183 43.4984C154.025 43.635 153.852 43.8292 153.687 43.9874C153.356 44.3181 153.039 44.6417 152.73 44.951C152.126 45.5766 151.501 46.1447 151.048 46.684C150.853 46.9788 150.925 47.3384 150.911 47.6763C150.911 48.0071 150.911 48.3163 150.911 48.6184C150.911 49.1936 150.904 49.697 150.897 50.1285C150.897 50.5096 150.889 50.826 150.882 51.0993C150.882 51.3222 150.875 51.4444 150.868 51.4516C150.868 51.4516 150.853 51.351 150.846 51.1352C150.839 50.8692 150.832 50.5599 150.817 50.186C150.81 49.7474 150.796 49.2368 150.781 48.6615C150.781 48.3595 150.767 48.0359 150.76 47.7051C150.76 47.5325 150.76 47.3599 150.753 47.1802C150.753 46.986 150.803 46.7919 150.904 46.6193C151.4 46.008 151.99 45.4759 152.594 44.8359C152.903 44.5195 153.219 44.1959 153.543 43.8651C153.715 43.6997 153.852 43.5343 154.061 43.3545C154.276 43.1892 154.571 43.1316 154.844 43.2035C155.132 43.2683 155.319 43.5056 155.492 43.6638C155.671 43.8435 155.851 44.0161 156.038 44.2031C156.405 44.5626 156.786 44.9366 157.167 45.3105C157.548 45.6844 157.937 46.0727 158.332 46.4611C158.519 46.6265 158.785 46.9069 158.771 47.2449C158.771 47.5253 158.771 47.813 158.771 48.0934C158.778 49.2296 158.785 50.3442 158.792 51.4157V51.5307H158.677C157.757 51.5307 156.865 51.5379 156.009 51.5451H155.901V51.4372C155.901 50.6606 155.901 49.9127 155.894 49.2008C155.909 48.8844 155.657 48.604 155.369 48.568C155.067 48.5536 154.701 48.568 154.406 48.568C154.125 48.5896 153.888 48.8197 153.838 49.0786C153.809 49.3447 153.838 49.6611 153.823 49.9271C153.823 50.4808 153.823 50.9914 153.823 51.4588V51.5307H153.759C152.881 51.5235 152.169 51.5163 151.608 51.5092C151.393 51.5092 151.213 51.502 151.048 51.4948C150.925 51.4948 150.861 51.4876 150.868 51.4804L150.861 51.4444Z" fill="#263238"/>
<path d="M273.158 44.304C273.158 44.304 273.107 44.268 273.079 44.268L266.794 44.2321H264.946H264.399L264.349 43.8725L264.255 43.1678C264.248 43.1175 264.205 43.0743 264.147 43.0743H262.4C262.263 43.0887 262.17 43.0887 262.17 43.1966C262.17 43.3045 262.256 43.3045 262.4 43.3116L263.996 43.3476L264.888 50.2366C264.888 50.2869 264.938 50.3301 264.996 50.3301L270.13 50.3516H272.058C272.223 50.3373 272.302 50.3373 272.302 50.2294C272.302 50.1215 272.223 50.1215 272.058 50.1143L265.169 50.0209L265.003 48.7984L272.245 48.8991C272.295 48.8991 272.338 48.8631 272.352 48.8128L272.885 45.9292L273.172 44.3831C273.172 44.3831 273.172 44.3184 273.151 44.2968L273.158 44.304ZM264.435 44.4622L272.834 44.5701L272.094 48.6042L266.938 48.5827H265.406L264.996 48.5898L264.442 44.4694L264.435 44.4622Z" fill="#263238"/>
<path d="M266.923 51.9406C266.909 51.8543 266.844 51.6314 266.636 51.4588C266.47 51.3222 266.161 51.2 265.823 51.315C265.485 51.4229 265.24 51.7609 265.24 52.1276C265.233 52.5375 265.521 52.8539 265.809 52.9474C265.909 52.9833 266.003 52.9977 266.096 52.9977C266.312 52.9977 266.506 52.9114 266.621 52.8179C266.844 52.6453 266.902 52.4296 266.923 52.3433C266.93 52.293 266.945 52.2067 266.938 52.142C266.952 52.0773 266.938 51.9982 266.93 51.9406H266.923ZM265.909 52.6597C265.722 52.595 265.542 52.3865 265.542 52.1276C265.542 51.8687 265.729 51.6602 265.916 51.6027C265.981 51.5811 266.046 51.5667 266.111 51.5667C266.254 51.5667 266.377 51.617 266.456 51.6818C266.6 51.7896 266.657 51.9262 266.679 51.9982C266.693 52.0485 266.7 52.0916 266.707 52.1204C266.707 52.1204 266.707 52.1348 266.707 52.142C266.707 52.1492 266.707 52.1564 266.707 52.1636C266.707 52.1923 266.693 52.2355 266.679 52.2858C266.657 52.3577 266.6 52.4943 266.449 52.6022C266.334 52.6885 266.125 52.7532 265.909 52.6741V52.6597Z" fill="#263238"/>
<path d="M271.533 51.9768C271.518 51.8905 271.454 51.6676 271.245 51.495C271.08 51.3583 270.763 51.2361 270.433 51.3511C270.095 51.459 269.85 51.8042 269.85 52.1637C269.843 52.5736 270.131 52.89 270.418 52.9835C270.519 53.0195 270.612 53.0338 270.706 53.0338C270.922 53.0338 271.116 52.9475 271.231 52.8541C271.446 52.6815 271.511 52.4657 271.533 52.3795C271.54 52.3291 271.554 52.2428 271.547 52.1781C271.562 52.1134 271.547 52.0199 271.54 51.9768H271.533ZM270.519 52.6959C270.339 52.6311 270.152 52.4226 270.152 52.1637C270.152 51.9049 270.346 51.6963 270.526 51.6388C270.591 51.6172 270.655 51.6028 270.72 51.6028C270.864 51.6028 270.986 51.6604 271.065 51.7179C271.209 51.8258 271.267 51.9624 271.288 52.0343C271.303 52.0846 271.31 52.1278 271.317 52.1565C271.317 52.1565 271.317 52.1709 271.317 52.1781C271.317 52.1853 271.317 52.1925 271.317 52.1997C271.317 52.2284 271.303 52.2644 271.288 52.3219C271.267 52.3938 271.209 52.5305 271.058 52.6383C270.943 52.7246 270.735 52.7893 270.512 52.7102L270.519 52.6959Z" fill="#263238"/>
<path d="M175.288 208.201C175.288 209.222 174.547 209.833 173.332 209.833H172.045V211.344H171.542V206.562H173.332C174.547 206.562 175.288 207.18 175.288 208.201ZM174.785 208.201C174.785 207.439 174.281 207 173.325 207H172.052V209.395H173.325C174.281 209.395 174.785 208.956 174.792 208.208L174.785 208.201Z" fill="#263238"/>
<path d="M179.588 207.755V211.351H179.121V210.696C178.869 211.135 178.402 211.387 177.826 211.387C176.913 211.387 176.309 210.876 176.309 209.841V207.755H176.798V209.79C176.798 210.553 177.193 210.948 177.877 210.948C178.632 210.948 179.099 210.466 179.099 209.639V207.755H179.588Z" fill="#263238"/>
<path d="M182.767 207.726V208.201C182.723 208.201 182.688 208.201 182.652 208.201C181.896 208.201 181.443 208.676 181.443 209.524V211.358H180.954V207.762H181.422V208.467C181.645 207.993 182.105 207.734 182.767 207.734V207.726Z" fill="#263238"/>
<path d="M183.241 209.553C183.241 208.482 184.018 207.726 185.096 207.726C185.708 207.726 186.218 207.964 186.506 208.438L186.146 208.683C185.902 208.323 185.521 208.151 185.104 208.151C184.32 208.151 183.744 208.712 183.744 209.553C183.744 210.402 184.32 210.955 185.104 210.955C185.521 210.955 185.902 210.79 186.146 210.43L186.506 210.675C186.218 211.142 185.708 211.387 185.096 211.387C184.025 211.387 183.241 210.624 183.248 209.553H183.241Z" fill="#263238"/>
<path d="M190.706 209.272V211.358H190.217V209.323C190.217 208.568 189.821 208.172 189.138 208.172C188.369 208.172 187.88 208.647 187.88 209.467V211.351H187.391V206.281H187.88V208.388C188.146 207.971 188.62 207.734 189.224 207.734C190.102 207.734 190.699 208.237 190.699 209.272H190.706Z" fill="#263238"/>
<path d="M194.74 209.129V211.358H194.272V210.797C194.057 211.164 193.632 211.394 193.035 211.394C192.223 211.394 191.727 210.97 191.727 210.344C191.727 209.79 192.079 209.323 193.115 209.323H194.258V209.107C194.258 208.489 193.913 208.158 193.237 208.158C192.769 208.158 192.338 208.323 192.043 208.582L191.827 208.223C192.187 207.914 192.726 207.741 193.294 207.741C194.222 207.741 194.747 208.208 194.747 209.136L194.74 209.129ZM194.251 210.279V209.69H193.122C192.424 209.69 192.201 209.963 192.201 210.33C192.201 210.747 192.539 211.006 193.107 211.006C193.654 211.006 194.057 210.747 194.251 210.272V210.279Z" fill="#263238"/>
<path d="M195.56 210.948L195.775 210.567C196.063 210.79 196.545 210.97 197.055 210.97C197.738 210.97 198.019 210.74 198.019 210.38C198.019 209.445 195.689 210.179 195.689 208.762C195.689 208.172 196.192 207.734 197.113 207.741C197.58 207.741 198.084 207.87 198.386 208.079L198.17 208.467C197.853 208.251 197.48 208.158 197.113 208.158C196.466 208.158 196.178 208.41 196.178 208.755C196.178 209.726 198.508 208.992 198.508 210.38C198.508 210.998 197.961 211.408 197.027 211.401C196.43 211.401 195.854 211.207 195.567 210.955L195.56 210.948Z" fill="#263238"/>
<path d="M202.535 209.718H199.529C199.586 210.466 200.154 210.97 200.945 210.97C201.384 210.97 201.772 210.811 202.046 210.502L202.319 210.819C201.995 211.2 201.499 211.408 200.931 211.408C199.809 211.408 199.047 210.639 199.047 209.574C199.047 208.51 199.795 207.748 200.801 207.748C201.815 207.748 202.542 208.496 202.542 209.574C202.542 209.618 202.542 209.668 202.542 209.725L202.535 209.718ZM199.529 209.352H202.081C202.017 208.647 201.506 208.158 200.801 208.158C200.104 208.158 199.593 208.647 199.529 209.352Z" fill="#263238"/>
<path d="M210.603 207.77L209.237 211.365H208.777L207.64 208.417L206.504 211.365H206.044L204.692 207.77H205.159L206.288 210.826L207.446 207.77H207.863L209.007 210.826L210.15 207.77H210.596H210.603Z" fill="#263238"/>
<path d="M213.94 209.143V211.373H213.472V210.812C213.257 211.178 212.833 211.409 212.236 211.409C211.423 211.409 210.927 210.984 210.927 210.359C210.927 209.805 211.286 209.338 212.315 209.338H213.458V209.122C213.458 208.503 213.113 208.173 212.437 208.173C211.97 208.173 211.531 208.338 211.243 208.597L211.028 208.237C211.387 207.928 211.926 207.755 212.487 207.755C213.415 207.755 213.94 208.223 213.94 209.151V209.143ZM213.451 210.294V209.704H212.322C211.624 209.704 211.401 209.978 211.401 210.344C211.401 210.761 211.739 211.02 212.308 211.02C212.854 211.02 213.257 210.761 213.451 210.287V210.294Z" fill="#263238"/>
<path d="M214.76 210.963L214.976 210.582C215.263 210.804 215.745 210.984 216.256 210.984C216.939 210.984 217.219 210.754 217.219 210.395C217.219 209.46 214.889 210.193 214.889 208.777C214.889 208.187 215.393 207.748 216.313 207.755C216.78 207.755 217.284 207.885 217.586 208.093L217.377 208.482C217.061 208.266 216.687 208.173 216.32 208.173C215.673 208.173 215.385 208.424 215.385 208.769C215.385 209.74 217.715 209.007 217.715 210.395C217.715 211.013 217.169 211.423 216.234 211.416C215.637 211.416 215.069 211.222 214.774 210.97L214.76 210.963Z" fill="#263238"/>
<path d="M219.894 210.963L220.11 210.582C220.397 210.804 220.879 210.984 221.39 210.984C222.073 210.984 222.353 210.754 222.353 210.395C222.353 209.46 220.023 210.193 220.023 208.777C220.023 208.187 220.527 207.748 221.447 207.755C221.915 207.755 222.418 207.885 222.72 208.093L222.512 208.482C222.195 208.259 221.821 208.173 221.454 208.173C220.807 208.173 220.52 208.424 220.52 208.769C220.52 209.74 222.85 209.007 222.85 210.395C222.85 211.013 222.303 211.423 221.368 211.416C220.771 211.416 220.203 211.222 219.908 210.97L219.894 210.963Z" fill="#263238"/>
<path d="M226.977 207.777V211.372H226.51V210.718C226.258 211.157 225.791 211.408 225.215 211.408C224.302 211.408 223.698 210.898 223.698 209.862V207.777H224.187V209.812C224.187 210.574 224.583 210.97 225.266 210.97C226.021 210.97 226.488 210.488 226.488 209.661V207.777H226.977Z" fill="#263238"/>
<path d="M227.977 209.582C227.977 208.511 228.761 207.755 229.832 207.755C230.443 207.755 230.954 207.993 231.242 208.467L230.882 208.712C230.637 208.352 230.256 208.18 229.839 208.18C229.055 208.18 228.48 208.741 228.48 209.582C228.48 210.431 229.055 210.984 229.839 210.984C230.256 210.984 230.637 210.819 230.882 210.459L231.242 210.704C230.954 211.171 230.443 211.416 229.832 211.416C228.761 211.416 227.977 210.653 227.984 209.582H227.977Z" fill="#263238"/>
<path d="M231.766 209.582C231.766 208.511 232.55 207.755 233.622 207.755C234.233 207.755 234.743 207.993 235.031 208.467L234.671 208.712C234.427 208.352 234.046 208.18 233.629 208.18C232.845 208.18 232.27 208.741 232.27 209.582C232.27 210.431 232.845 210.984 233.629 210.984C234.046 210.984 234.427 210.819 234.671 210.459L235.031 210.704C234.743 211.171 234.233 211.416 233.622 211.416C232.55 211.416 231.766 210.653 231.773 209.582H231.766Z" fill="#263238"/>
<path d="M239.044 209.733H236.038C236.095 210.481 236.664 210.984 237.455 210.984C237.893 210.984 238.282 210.826 238.555 210.517L238.828 210.833C238.504 211.214 238.008 211.423 237.44 211.423C236.318 211.423 235.556 210.653 235.556 209.589C235.556 208.525 236.304 207.763 237.311 207.763C238.325 207.763 239.051 208.511 239.051 209.589C239.051 209.632 239.051 209.683 239.051 209.74L239.044 209.733ZM236.038 209.366H238.591C238.526 208.662 238.015 208.173 237.311 208.173C236.613 208.173 236.103 208.662 236.038 209.366Z" fill="#263238"/>
<path d="M239.547 210.97L239.763 210.589C240.05 210.812 240.532 210.991 241.043 210.991C241.726 210.991 242.006 210.761 242.006 210.402C242.006 209.467 239.676 210.2 239.676 208.784C239.676 208.194 240.18 207.755 241.1 207.763C241.568 207.763 242.071 207.892 242.373 208.101L242.164 208.489C241.848 208.266 241.474 208.18 241.107 208.18C240.46 208.18 240.172 208.431 240.172 208.777C240.172 209.747 242.502 209.014 242.502 210.402C242.502 211.02 241.956 211.43 241.021 211.423C240.424 211.423 239.856 211.229 239.561 210.977L239.547 210.97Z" fill="#263238"/>
<path d="M242.891 210.977L243.107 210.596C243.394 210.819 243.876 210.999 244.387 210.999C245.07 210.999 245.35 210.769 245.35 210.409C245.35 209.474 243.02 210.208 243.02 208.791C243.02 208.201 243.524 207.763 244.444 207.77C244.912 207.77 245.415 207.899 245.717 208.108L245.509 208.496C245.192 208.281 244.818 208.187 244.451 208.187C243.804 208.187 243.517 208.439 243.517 208.784C243.517 209.755 245.847 209.021 245.847 210.409C245.847 211.028 245.3 211.437 244.365 211.43C243.768 211.43 243.2 211.236 242.905 210.984L242.891 210.977Z" fill="#263238"/>
<path d="M247.285 207.367V207.791H248.392V208.201H247.299V211.387H246.81V208.201H246.17V207.791H246.81V207.345C246.81 206.705 247.191 206.281 247.896 206.281C248.162 206.281 248.435 206.36 248.615 206.504L248.449 206.864C248.313 206.749 248.119 206.684 247.917 206.684C247.5 206.684 247.285 206.914 247.285 207.36V207.367Z" fill="#263238"/>
<path d="M252.29 207.791V211.387H251.822V210.733C251.571 211.171 251.103 211.423 250.528 211.423C249.615 211.423 249.01 210.912 249.01 209.877V207.791H249.499V209.826C249.499 210.589 249.895 210.984 250.578 210.984C251.333 210.984 251.801 210.502 251.801 209.675V207.791H252.29Z" fill="#263238"/>
<path d="M253.656 206.317H254.137V211.387H253.656V206.317Z" fill="#263238"/>
<path d="M182.968 194.733H180.387V193.51H186.988V194.733H184.406V201.291H182.961V194.733H182.968Z" fill="#FF725E"/>
<path d="M193.798 197.897V201.298H192.41V198.076C192.41 197.019 191.885 196.509 191.001 196.509C190.008 196.509 189.347 197.106 189.347 198.299V201.298H187.959V193.05H189.347V196.048C189.8 195.559 190.505 195.293 191.324 195.293C192.748 195.293 193.805 196.106 193.805 197.897H193.798Z" fill="#FF725E"/>
<path d="M200.536 197.818V201.298H199.228V200.572C198.897 201.082 198.25 201.37 197.358 201.37C195.999 201.37 195.143 200.622 195.143 199.594C195.143 198.565 195.812 197.825 197.61 197.825H199.141V197.738C199.141 196.926 198.652 196.451 197.66 196.451C196.991 196.451 196.301 196.674 195.862 197.041L195.316 196.027C195.948 195.538 196.869 195.293 197.825 195.293C199.537 195.293 200.529 196.106 200.529 197.818H200.536ZM199.148 199.443V198.752H197.717C196.775 198.752 196.517 199.112 196.517 199.543C196.517 200.047 196.941 200.363 197.653 200.363C198.365 200.363 198.918 200.054 199.156 199.443H199.148Z" fill="#FF725E"/>
<path d="M208.159 197.897V201.298H206.771V198.076C206.771 197.019 206.246 196.509 205.361 196.509C204.369 196.509 203.707 197.106 203.707 198.299V201.298H202.32V195.358H203.643V196.128C204.096 195.581 204.822 195.293 205.685 195.293C207.109 195.293 208.166 196.106 208.166 197.897H208.159Z" fill="#FF725E"/>
<path d="M212.351 198.752L211.316 199.73V201.298H209.928V193.05H211.316V198.033L214.192 195.365H215.86L213.379 197.853L216.09 201.298H214.401L212.344 198.752H212.351Z" fill="#FF725E"/>
<path d="M225.626 195.358L222.843 201.773C222.296 203.117 221.541 203.527 220.549 203.527C219.959 203.527 219.334 203.326 218.96 202.981L219.513 201.959C219.78 202.218 220.161 202.369 220.535 202.369C221.024 202.369 221.311 202.139 221.577 201.55L221.678 201.312L219.089 195.351H220.535L222.404 199.745L224.281 195.351H225.619L225.626 195.358Z" fill="#FF725E"/>
<path d="M225.834 198.328C225.834 196.552 227.172 195.293 228.991 195.293C230.81 195.293 232.162 196.552 232.162 198.328C232.162 200.104 230.839 201.377 228.991 201.377C227.143 201.377 225.834 200.111 225.834 198.328ZM230.76 198.328C230.76 197.192 230.005 196.473 228.991 196.473C227.977 196.473 227.236 197.199 227.236 198.328C227.236 199.457 227.991 200.183 228.991 200.183C229.991 200.183 230.76 199.457 230.76 198.328Z" fill="#FF725E"/>
<path d="M239.238 195.358V201.298H237.915V200.543C237.469 201.09 236.772 201.377 236.002 201.377C234.478 201.377 233.442 200.543 233.442 198.752V195.358H234.83V198.558C234.83 199.637 235.341 200.147 236.218 200.147C237.189 200.147 237.843 199.543 237.843 198.357V195.358H239.231H239.238Z" fill="#FF725E"/>
<path d="M240.806 200.507C240.806 200.025 241.187 199.651 241.704 199.651C242.222 199.651 242.582 200.032 242.582 200.507C242.582 200.982 242.215 201.377 241.704 201.377C241.194 201.377 240.806 200.989 240.806 200.507ZM240.885 193.51H242.531L242.251 198.716H241.151L240.885 193.51Z" fill="#FF725E"/>
<path d="M231.271 77.0085L229.171 106.751C228.826 111.604 224.791 115.373 219.923 115.373C214.566 115.373 210.316 110.842 210.668 105.492C210.855 102.659 211.021 100.343 211.021 100.343C211.021 100.343 203.822 99.2215 203.729 92.0233C203.679 87.8669 204.398 78.4323 205.009 71.1982C205.426 66.3083 209.518 62.5618 214.422 62.5618H218.773C226.266 63.0004 231.918 69.5299 231.271 77.0085Z" fill="#FFBE9D"/>
<path d="M211.021 100.343C211.021 100.343 215.558 100.609 220.398 97.5748C220.398 97.5748 218.082 102.81 210.898 102.163L211.028 100.343H211.021Z" fill="#EB996E"/>
<path d="M206.361 78.0728C206.491 78.2094 207.268 77.6269 208.375 77.6341C209.482 77.6198 210.295 78.1879 210.41 78.0584C210.468 78.0009 210.338 77.7564 209.986 77.4975C209.641 77.2386 209.044 76.9941 208.353 76.9941C207.663 76.9941 207.088 77.253 206.75 77.5119C206.412 77.7708 206.297 78.0153 206.354 78.0728H206.361Z" fill="#263238"/>
<path d="M216.228 81.1433C216.206 81.6898 216.652 82.15 217.22 82.1788C217.788 82.2075 218.263 81.7977 218.277 81.2511C218.299 80.7118 217.853 80.2444 217.285 80.2156C216.717 80.1869 216.242 80.6039 216.22 81.1433H216.228Z" fill="#263238"/>
<path d="M206.347 81.1433C206.325 81.6898 206.771 82.15 207.339 82.1788C207.907 82.2075 208.382 81.7977 208.396 81.2511C208.418 80.7118 207.972 80.2444 207.404 80.2156C206.836 80.1869 206.361 80.6039 206.34 81.1433H206.347Z" fill="#263238"/>
<path d="M217.047 78.2238C217.177 78.3604 217.953 77.7779 219.061 77.7851C220.168 77.7707 220.981 78.3388 221.096 78.2022C221.153 78.1447 221.024 77.9002 220.671 77.6413C220.326 77.3824 219.729 77.1379 219.039 77.1379C218.349 77.1379 217.773 77.3968 217.435 77.6557C217.097 77.9146 216.982 78.1591 217.04 78.2166L217.047 78.2238Z" fill="#263238"/>
<path d="M213.114 86.8315C213.114 86.7668 212.43 86.6517 211.316 86.5079C211.035 86.4791 210.769 86.4216 210.719 86.2275C210.654 86.0261 210.769 85.7169 210.906 85.3933C211.172 84.7102 211.452 83.9911 211.74 83.2432C212.898 80.1798 213.739 77.663 213.617 77.6126C213.495 77.5695 212.452 80.0144 211.294 83.0778C211.014 83.8328 210.748 84.5519 210.496 85.2423C210.388 85.5659 210.208 85.9254 210.352 86.3497C210.431 86.5582 210.633 86.7164 210.82 86.7596C210.999 86.8171 211.158 86.8171 211.301 86.8243C212.423 86.8818 213.121 86.889 213.121 86.8243L213.114 86.8315Z" fill="#263238"/>
<path d="M216.371 87.5938C216.191 87.5866 216.191 88.7875 215.163 89.636C214.134 90.4917 212.854 90.3551 212.847 90.5277C212.833 90.5996 213.135 90.7578 213.674 90.7722C214.206 90.7938 214.976 90.6212 215.609 90.0962C216.234 89.5713 216.508 88.8738 216.543 88.3848C216.587 87.8814 216.457 87.5866 216.371 87.5938Z" fill="#263238"/>
<path d="M217.119 74.2112C217.227 74.5132 218.334 74.3694 219.628 74.5276C220.93 74.6571 221.98 75.0382 222.145 74.7649C222.224 74.6355 222.037 74.355 221.613 74.0602C221.196 73.7726 220.527 73.4921 219.743 73.4058C218.967 73.3195 218.248 73.4418 217.78 73.6359C217.306 73.8301 217.061 74.0674 217.111 74.204L217.119 74.2112Z" fill="#263238"/>
<path d="M206.188 74.7362C206.382 74.9879 207.145 74.729 208.065 74.7146C208.978 74.6715 209.755 74.88 209.935 74.6211C210.014 74.4917 209.892 74.24 209.554 74.0027C209.223 73.7654 208.662 73.5713 208.029 73.5928C207.396 73.6144 206.857 73.8373 206.533 74.0962C206.21 74.3551 206.102 74.614 206.188 74.7362Z" fill="#263238"/>
<path d="M228.84 82.409C228.962 82.3587 233.787 80.9492 233.629 85.8679C233.471 90.7865 228.56 89.6144 228.56 89.4778C228.56 89.334 228.84 82.409 228.84 82.409Z" fill="#FFBE9D"/>
<path d="M230.127 87.6584C230.127 87.6584 230.214 87.7231 230.357 87.795C230.494 87.8669 230.739 87.9172 230.997 87.831C231.522 87.6584 231.99 86.8458 232.04 85.9613C232.069 85.5154 231.99 85.084 231.839 84.7244C231.702 84.3577 231.472 84.0988 231.213 84.0485C230.954 83.9766 230.767 84.1276 230.703 84.2642C230.631 84.4008 230.659 84.5015 230.631 84.5087C230.616 84.5231 230.53 84.4224 230.573 84.2211C230.595 84.1276 230.659 84.0125 230.775 83.919C230.897 83.8256 231.069 83.7824 231.256 83.8112C231.637 83.8471 231.968 84.2067 232.126 84.6022C232.306 84.9977 232.407 85.4795 232.378 85.9829C232.313 86.9752 231.774 87.8885 231.062 88.0683C230.71 88.1474 230.429 88.0323 230.286 87.9101C230.135 87.7806 230.113 87.6728 230.135 87.6656L230.127 87.6584Z" fill="#EB996E"/>
<path d="M231.58 82.2436C230.832 82.0639 229.53 82.7542 229.214 83.4589C228.89 84.1636 228.826 84.9618 228.502 85.6594C228.186 86.3641 227.459 86.9969 226.712 86.8243C226.194 86.7021 225.82 86.2131 225.683 85.7025C225.547 85.1848 225.604 84.6454 225.669 84.1133C225.957 81.8122 226.446 79.5326 226.532 77.2171C226.625 74.9016 226.295 72.4998 225.079 70.5223C223.864 68.552 221.628 67.0994 219.319 67.2863C217.788 67.4086 216.385 68.2068 214.868 68.4225C213.063 68.6742 211.165 68.0414 209.87 66.7542C209.705 66.5888 208.935 66.0854 208.935 66.0854C208.935 65.9632 209.05 64.9349 209.453 64.5609C212.466 61.7708 217.903 60.9942 221.886 61.9938C225.87 62.9933 229.602 65.805 231.314 69.5371C233.025 73.2693 232.522 78.4612 231.573 82.2365" fill="#263238"/>
<path d="M204.225 69.9038C204.872 71.3995 206.519 72.2697 208.137 72.4351C209.755 72.6004 211.373 72.1762 212.941 71.7375C214.508 71.2917 218.708 70.5942 220.34 70.6445C220.585 70.6517 220.88 70.6445 221.009 70.4431C221.182 70.1699 220.908 69.8391 220.65 69.6377C218.507 67.955 213.315 66.9267 210.596 66.8117C207.871 66.6966 205.016 67.8688 203.535 70.1627" fill="#263238"/>
<path d="M204.93 70.0908C204.93 70.0908 207.03 67.9479 210.294 67.6675C216.522 67.1353 226.733 69.0481 232.09 79.7699C232.09 79.7699 233.212 76.2607 233.212 74.0675C233.212 72.6005 232.335 63.885 223.368 61.138C223.368 61.138 209.849 55.9821 204.937 70.0836L204.93 70.0908Z" fill="#FF725E"/>
<g opacity="0.4">
<path d="M204.93 70.0908C204.93 70.0908 207.08 67.5308 210.934 67.3654C216.507 67.1209 227.035 69.6738 232.09 79.7771C232.09 79.7771 233.212 76.2679 233.212 74.0747C233.212 72.6077 232.335 63.8922 223.368 61.1452C223.368 61.1452 209.849 55.9893 204.937 70.0908H204.93Z" fill="black"/>
</g>
<path d="M231.249 78.2454C228.559 73.7223 224.532 70.6158 220.196 67.9048C215.853 65.1937 208.676 62.5115 203.729 61.1955C202.24 60.8 200.694 60.4549 199.177 60.7209C197.66 60.9798 196.178 61.9937 195.804 63.4823C195.337 65.3448 198.645 68.2283 200.198 69.3573C201.751 70.4863 204.93 72.1475 204.93 72.1475C204.93 72.1475 204.887 68.6742 210.424 67.9767C217.974 67.0203 231.479 78.4468 231.249 78.2526V78.2454Z" fill="#FBDE3F"/>
<path d="M221.196 64.7334C221.139 64.8412 219.082 63.439 216.155 62.7486C213.236 62.0224 210.769 62.3244 210.762 62.2021C210.762 62.159 211.359 62.0224 212.358 61.9864C213.358 61.9432 214.746 62.0295 216.242 62.3891C217.73 62.7558 219.003 63.3167 219.873 63.8129C220.743 64.3091 221.218 64.7046 221.196 64.7406V64.7334Z" fill="white"/>
<path d="M258.366 182.055C258.366 182.155 239.957 182.242 217.248 182.242C194.539 182.242 176.13 182.155 176.13 182.055C176.13 181.954 194.539 181.868 217.248 181.868C239.957 181.868 258.366 181.954 258.366 182.055Z" fill="#263238"/>
<path d="M182.07 123.211L171.485 128L155.06 114.61L150.055 122.535C150.055 122.535 159.411 133.357 162.877 137.032C166.343 140.707 168.651 142.67 171.384 142.317C174.117 141.965 189.714 134.616 189.714 134.616C189.714 134.616 186.039 123.671 182.07 123.211Z" fill="#FFBE9D"/>
<path d="M137.069 107.858C137.069 107.858 139.132 109.411 140.484 109.31C141.836 109.21 146.949 109.188 147.33 109.217C147.711 109.246 152.695 111.957 152.695 111.957L156.348 115.473L150.616 123.441C150.616 123.441 149.667 122.355 149.027 122.434C148.38 122.513 140.506 121.837 139.319 121.435C138.133 121.032 136.615 120.802 136.22 120.068C135.824 119.335 135.731 118.817 136.824 117.875C136.824 117.875 135.371 116.753 136.429 115.358C136.429 115.358 134.789 114.157 135.379 113.05C135.379 113.05 134.444 112.669 134.3 112.079C134.149 111.497 134.365 110.231 134.365 110.231L136.716 109.497C136.716 109.497 136.004 108.678 137.083 107.865L137.069 107.858Z" fill="#FFBE9D"/>
<path d="M136.141 109.663C136.141 109.663 136.249 109.612 136.443 109.562C136.637 109.519 136.91 109.397 137.32 109.382C137.73 109.397 138.176 109.541 138.6 109.879C139.017 110.202 139.312 110.864 139.089 111.496C138.989 111.813 138.722 112.072 138.449 112.187C138.176 112.309 137.917 112.352 137.68 112.403C137.248 112.489 136.831 112.582 136.414 112.661C135.695 112.798 135.242 112.863 135.228 112.812C135.213 112.762 135.645 112.611 136.349 112.41C136.759 112.302 137.169 112.187 137.593 112.072C138.068 111.957 138.586 111.842 138.722 111.374C138.881 110.914 138.694 110.425 138.363 110.145C138.039 109.857 137.615 109.692 137.306 109.648C136.975 109.627 136.673 109.706 136.464 109.706C136.256 109.72 136.134 109.692 136.134 109.663H136.141Z" fill="#EB996E"/>
<path d="M139.089 111.727C139.089 111.727 139.283 111.648 139.643 111.576C140.003 111.504 140.527 111.41 141.196 111.403C141.851 111.403 142.692 111.482 143.469 111.993C143.842 112.244 144.209 112.633 144.324 113.165C144.439 113.668 144.267 114.323 143.735 114.625C143.217 114.905 142.699 114.876 142.246 114.927C141.779 114.963 141.333 114.999 140.894 115.035C140.067 115.092 139.298 115.142 138.607 115.193C137.306 115.272 136.5 115.293 136.493 115.243C136.493 115.193 137.291 115.078 138.586 114.927C139.276 114.855 140.038 114.776 140.865 114.689C141.297 114.646 141.75 114.603 142.21 114.56C142.678 114.51 143.174 114.51 143.54 114.294C143.907 114.093 144.037 113.632 143.958 113.23C143.878 112.834 143.591 112.496 143.267 112.266C142.591 111.806 141.815 111.684 141.189 111.662C139.909 111.64 139.096 111.799 139.089 111.727Z" fill="#EB996E"/>
<path d="M143.95 114.61C143.95 114.61 144.101 114.632 144.252 114.833C144.396 115.027 144.526 115.409 144.389 115.847C144.252 116.293 143.821 116.689 143.282 116.883C142.735 117.091 142.109 117.091 141.498 117.12C139.024 117.235 137.061 117.724 137.033 117.616C137.004 117.53 138.96 116.868 141.484 116.746C142.109 116.717 142.699 116.717 143.174 116.559C143.648 116.408 144.015 116.092 144.152 115.761C144.288 115.423 144.231 115.092 144.137 114.905C144.044 114.711 143.943 114.632 143.965 114.61H143.95Z" fill="#EB996E"/>
<path d="M152.112 115.998C152.126 116.041 151.745 116.236 151.077 116.401C150.408 116.566 149.444 116.66 148.387 116.523C147.337 116.379 146.431 116.034 145.827 115.696C145.223 115.365 144.907 115.071 144.928 115.035C144.986 114.934 146.402 115.89 148.437 116.149C150.465 116.437 152.083 115.883 152.112 115.998Z" fill="#EB996E"/>
<path d="M143.914 112.324C143.965 112.23 144.475 112.41 145.101 112.324C145.734 112.259 146.194 111.971 146.258 112.058C146.338 112.122 145.899 112.618 145.144 112.698C144.389 112.784 143.849 112.395 143.914 112.316V112.324Z" fill="#EB996E"/>
<path d="M143.354 120.176C143.26 120.169 143.483 119.083 144.447 118.199C145.396 117.3 146.496 117.149 146.496 117.249C146.532 117.357 145.568 117.652 144.706 118.472C143.828 119.277 143.461 120.219 143.361 120.176H143.354Z" fill="#EB996E"/>
<path d="M126.289 140.865H157.527L163.323 186.542H120.191L126.289 140.865Z" fill="#FBDE3F"/>
<path d="M157.527 140.865H161.137L171.794 186.542H163.323L157.527 140.865Z" fill="#FF725E"/>
<path opacity="0.3" d="M157.527 140.865H161.137L171.794 186.542H163.323L157.527 140.865Z" fill="black"/>
<path d="M140.081 117.113C140.081 117.113 140.175 117.063 140.333 117.099C140.491 117.134 140.714 117.271 140.879 117.523C141.045 117.767 141.131 118.177 140.98 118.558C140.843 118.939 140.527 119.277 140.132 119.479C139.571 119.766 138.995 119.781 138.542 119.788L138.679 119.694C138.269 120.478 137.78 120.831 137.744 120.78C137.687 120.73 138.075 120.313 138.391 119.558L138.427 119.472H138.528C138.967 119.421 139.492 119.378 139.952 119.141C140.275 118.968 140.534 118.702 140.649 118.422C140.772 118.141 140.743 117.854 140.642 117.638C140.434 117.192 140.06 117.149 140.074 117.099L140.081 117.113Z" fill="#EB996E"/>
<path d="M134.228 142.857C134.228 142.857 134.228 142.526 134.293 141.929C134.357 141.332 134.48 140.476 134.652 139.426C134.99 137.32 135.565 134.422 136.241 131.243C136.917 128.057 137.529 125.181 137.931 123.088C138.125 122.096 138.284 121.269 138.413 120.608C138.528 120.025 138.6 119.702 138.622 119.702C138.65 119.702 138.622 120.032 138.557 120.629C138.492 121.226 138.37 122.082 138.197 123.132C137.859 125.239 137.284 128.137 136.608 131.315C135.932 134.501 135.321 137.377 134.918 139.47C134.724 140.462 134.566 141.289 134.436 141.951C134.321 142.533 134.249 142.857 134.228 142.857Z" fill="#FBDE3F"/>
<path d="M150.717 143.317C150.717 143.317 150.573 142.95 150.372 142.267C150.163 141.519 149.89 140.541 149.566 139.369C148.897 136.917 148.006 133.523 147.042 129.769C146.078 126.015 145.223 122.607 144.619 120.14C144.338 118.954 144.108 117.969 143.928 117.214C143.77 116.523 143.698 116.135 143.727 116.128C143.749 116.128 143.871 116.494 144.072 117.178C144.281 117.925 144.554 118.903 144.878 120.076C145.546 122.528 146.438 125.922 147.402 129.676C148.365 133.429 149.221 136.831 149.825 139.304C150.105 140.491 150.336 141.476 150.515 142.231C150.674 142.921 150.745 143.31 150.717 143.317Z" fill="#FBDE3F"/>
<path d="M171.794 186.542C171.758 186.585 171.19 186.175 170.291 185.492C169.392 184.809 168.169 183.838 166.832 182.752C166.602 182.565 166.372 182.378 166.156 182.199L166.429 182.156C165.588 183.421 164.833 184.536 164.279 185.32C163.725 186.103 163.366 186.571 163.33 186.542C163.294 186.513 163.574 186.003 164.078 185.183C164.581 184.363 165.3 183.227 166.127 181.954L166.242 181.782L166.4 181.911C166.616 182.091 166.846 182.271 167.076 182.458C168.414 183.543 169.615 184.543 170.471 185.284C171.326 186.024 171.837 186.499 171.808 186.542H171.794Z" fill="#263238"/>
<path d="M159.425 140.865C159.526 140.85 161.144 150.055 163.035 161.431C164.926 172.807 166.379 182.04 166.271 182.055C166.17 182.069 164.553 172.865 162.661 161.489C160.77 150.112 159.317 140.879 159.425 140.865Z" fill="#263238"/>
<path d="M159.346 153.83C159.346 153.83 159.116 154.089 158.619 154.521C158.123 154.952 157.347 155.549 156.239 156.139C155.132 156.728 153.694 157.318 151.925 157.62C150.17 157.907 148.07 157.972 145.906 157.267C144.834 156.908 143.756 156.333 142.886 155.427C142.023 154.535 141.354 153.334 141.239 151.968C141.124 150.609 141.677 149.156 142.792 148.214C143.346 147.739 144.065 147.43 144.82 147.373C145.575 147.308 146.337 147.488 147.02 147.833C147.704 148.178 148.315 148.681 148.789 149.3C149.264 149.925 149.595 150.652 149.796 151.421C150.199 152.96 150.105 154.607 149.782 156.189C149.127 159.374 147.43 162.459 144.877 164.789C143.597 165.947 142.159 166.903 140.599 167.536C139.046 168.176 137.363 168.5 135.731 168.37C134.098 168.234 132.523 167.637 131.286 166.652C130.035 165.681 129.151 164.272 128.906 162.769C128.655 161.273 128.935 159.72 129.748 158.512C130.531 157.311 131.898 156.469 133.307 156.592C134.005 156.649 134.645 157.023 135.069 157.541C135.5 158.051 135.745 158.67 135.867 159.281C136.119 160.525 135.867 161.74 135.457 162.79C134.587 164.904 132.984 166.357 131.452 167.256C129.891 168.147 128.388 168.557 127.166 168.809C125.936 169.054 124.966 169.133 124.311 169.176C123.98 169.197 123.729 169.205 123.563 169.212C123.398 169.212 123.312 169.212 123.304 169.212C123.304 169.212 123.391 169.197 123.556 169.176C123.743 169.161 123.988 169.133 124.297 169.104C124.951 169.039 125.915 168.931 127.13 168.672C128.338 168.406 129.819 167.975 131.344 167.083C132.833 166.192 134.386 164.753 135.213 162.704C135.601 161.69 135.831 160.511 135.587 159.346C135.464 158.77 135.234 158.195 134.839 157.735C134.458 157.275 133.897 156.951 133.278 156.901C132.027 156.793 130.754 157.57 130.028 158.698C129.273 159.827 129.007 161.302 129.259 162.711C129.489 164.128 130.323 165.451 131.517 166.378C132.696 167.313 134.206 167.889 135.766 168.018C138.938 168.27 142.166 166.781 144.633 164.53C147.121 162.258 148.789 159.238 149.429 156.131C149.753 154.585 149.839 152.989 149.458 151.529C149.271 150.803 148.955 150.112 148.516 149.53C148.07 148.947 147.502 148.48 146.869 148.156C146.237 147.84 145.532 147.667 144.849 147.725C144.166 147.775 143.518 148.056 143.008 148.487C141.972 149.35 141.447 150.709 141.548 151.968C141.642 153.241 142.274 154.391 143.094 155.247C143.914 156.11 144.957 156.678 145.992 157.037C148.092 157.735 150.163 157.692 151.889 157.433C153.629 157.16 155.067 156.592 156.167 156.031C157.275 155.463 158.059 154.887 158.569 154.477C158.828 154.283 159.015 154.111 159.144 154.003C159.274 153.895 159.339 153.837 159.346 153.845V153.83Z" fill="white"/>
<path d="M203.556 109.224H197.925C196.106 109.857 181.487 122.298 181.487 122.298L189.749 135.285L200.464 129.021L203.549 109.224H203.556Z" fill="#455A64"/>
<path d="M197.925 109.224L210.366 104.5C210.366 104.5 212.185 108.311 217.722 107.498C223.259 106.686 229.796 102.774 229.796 102.774C229.796 102.774 239.331 108.225 242.143 110.49C244.955 112.762 239.87 160.345 239.87 160.345L238.598 174.605C238.598 174.605 239.597 175.331 239.597 177.783C239.597 180.235 239.691 181.868 239.691 181.868H190.411C190.411 181.868 189.21 176.144 190.116 173.879C191.022 171.606 192.525 169.341 192.525 169.341L193.294 147.365L193.568 127.748L197.925 109.224Z" fill="#455A64"/>
<path d="M242.143 110.497C242.143 110.497 246.12 111.619 247.299 117.515C248.479 123.412 248.263 145.934 248.263 145.934L226.057 141.124C226.057 141.124 229.07 131.667 229.07 131.027C229.07 130.387 235.183 115.157 235.398 114.833C235.614 114.51 242.143 110.497 242.143 110.497Z" fill="#455A64"/>
<path d="M193.187 118.486C193.287 118.486 193.431 122.42 193.503 127.281C193.575 132.142 193.546 136.075 193.445 136.083C193.345 136.083 193.201 132.149 193.129 127.288C193.057 122.434 193.086 118.493 193.187 118.493V118.486Z" fill="#263238"/>
<path d="M231.853 120.593C231.853 120.593 231.853 120.874 231.767 121.377C231.688 121.873 231.558 122.592 231.386 123.484C231.041 125.253 230.494 127.691 229.797 130.351C229.092 133.019 228.365 135.407 227.797 137.118C227.51 137.974 227.272 138.664 227.093 139.139C226.913 139.613 226.805 139.872 226.783 139.858C226.762 139.851 226.819 139.577 226.956 139.088C227.114 138.528 227.316 137.837 227.546 137.039C228.049 135.306 228.732 132.919 229.43 130.258C230.127 127.597 230.71 125.181 231.12 123.426C231.314 122.614 231.479 121.916 231.616 121.348C231.738 120.859 231.817 120.593 231.839 120.593H231.853Z" fill="#263238"/>
<path d="M229.768 120.119C229.868 120.119 229.847 122.154 229.717 124.649C229.588 127.144 229.394 129.165 229.293 129.165C229.192 129.165 229.214 127.13 229.343 124.635C229.473 122.139 229.667 120.119 229.768 120.119Z" fill="#263238"/>
<path d="M224.23 127.554C224.23 127.655 222.095 127.741 219.463 127.741C216.831 127.741 214.695 127.655 214.695 127.554C214.695 127.453 216.831 127.367 219.463 127.367C222.095 127.367 224.23 127.453 224.23 127.554Z" fill="white"/>
<path d="M198.782 159.885L223.353 156.929L227.229 141.375L240.979 144.352C240.979 144.352 235.542 165.947 229.94 168.032C224.339 170.118 196.617 166.594 196.617 166.594L198.789 159.885H198.782Z" fill="#FFBE9D"/>
<path d="M197.775 159.712C197.775 159.712 194.819 158.497 193.683 158.324C192.54 158.159 191.202 158.403 190.864 158.957L184.234 162.804C184.234 162.804 179.337 162.337 178.87 163.437C178.87 163.437 175.742 162.553 175.238 163.185C175.238 163.185 173.678 163.689 173.93 164.408C174.181 165.127 179.841 167.112 179.841 167.112L187.614 167.917C187.614 167.917 190.57 166.314 191.799 166.184C193.022 166.055 195.467 166.508 195.323 166.465C195.222 166.429 199.853 166.982 199.853 166.982C199.853 166.982 200.802 165.976 201.176 163.185C201.557 160.395 201.176 159.806 201.176 159.806L197.782 159.719L197.775 159.712Z" fill="#FFBE9D"/>
<path d="M194.496 163.257C194.496 163.257 194.287 163.286 194.014 163.07C193.734 162.876 193.504 162.416 193.072 162.121C192.856 161.985 192.562 161.927 192.224 161.862C191.893 161.805 191.476 161.704 191.159 161.395C190.85 161.1 190.642 160.683 190.591 160.23C190.534 159.784 190.656 159.252 191.008 158.892C191.706 158.188 192.698 158.044 193.482 158.209C194.273 158.382 194.884 158.785 195.337 159.158C195.79 159.54 196.107 159.892 196.315 160.136C196.524 160.381 196.632 160.532 196.61 160.546C196.567 160.597 196.071 160.057 195.172 159.367C194.719 159.036 194.129 158.684 193.41 158.547C192.72 158.403 191.842 158.576 191.282 159.144C190.742 159.712 190.922 160.683 191.404 161.143C191.878 161.632 192.691 161.503 193.223 161.891C193.727 162.294 193.885 162.747 194.115 162.955C194.323 163.178 194.51 163.221 194.496 163.25V163.257Z" fill="#EB996E"/>
<path d="M190.397 161.97C190.397 162.035 190.023 162.013 189.498 162.251C188.958 162.452 188.326 162.999 187.376 163.258C186.399 163.459 185.579 163.15 185.011 163.071C184.435 162.963 184.076 162.984 184.061 162.934C184.047 162.891 184.428 162.769 185.039 162.812C185.643 162.826 186.463 163.078 187.29 162.891C188.11 162.682 188.808 162.164 189.404 162.006C190.008 161.812 190.411 161.934 190.397 161.978V161.97Z" fill="#EB996E"/>
<path d="M190.555 165.063C190.555 165.063 190.412 165.192 190.11 165.357C189.808 165.516 189.34 165.71 188.75 165.875C187.564 166.22 185.838 166.343 183.976 166.148C183.048 166.033 182.178 165.89 181.38 165.774C180.589 165.638 179.855 165.595 179.258 165.3C178.971 165.156 178.733 164.933 178.626 164.689C178.518 164.451 178.496 164.214 178.532 164.034C178.611 163.66 178.848 163.574 178.848 163.588C178.877 163.61 178.697 163.732 178.676 164.049C178.654 164.358 178.827 164.847 179.373 165.063C179.891 165.285 180.639 165.314 181.43 165.436C182.243 165.544 183.106 165.659 184.012 165.782C185.845 165.969 187.514 165.89 188.686 165.623C189.858 165.372 190.527 165.005 190.555 165.07V165.063Z" fill="#EB996E"/>
<path d="M227.431 163.221C227.323 163.257 226.913 161.726 225.834 160.151C224.77 158.562 223.504 157.62 223.576 157.526C223.612 157.44 225.036 158.281 226.143 159.935C227.265 161.582 227.524 163.207 227.431 163.214V163.221Z" fill="#EB996E"/>
<path d="M44.189 248.14L43.247 296.14L54.8749 297.391L62.8641 248.514L56.5863 240.618L44.189 248.14Z" fill="#FFBE9D"/>
<path d="M56.2987 295.019V295.802C56.2987 295.802 69.523 301.289 69.6308 303.813L43.247 303.375V294.587C47.1373 296.471 51.7468 296.759 56.2987 295.019Z" fill="#FBDE3F"/>
<path d="M43.247 303.374L43.3693 301.267L68.6169 302.461C68.6169 302.461 69.7818 302.993 69.638 303.82L43.2542 303.381L43.247 303.374Z" fill="#263238"/>
<path d="M39.3785 101.472C39.1916 99.2647 37.8612 97.0211 35.7471 96.3523L33.3165 97.7473C30.7493 98.9267 29.3974 102.22 30.3826 104.866C27.2042 106.679 26.1111 111.36 28.1606 114.387C26.5785 115.121 25.9026 117.048 25.9314 118.788C25.9601 120.528 26.5138 122.218 26.672 123.951C26.7943 125.289 26.672 126.648 26.9165 127.971C27.161 129.294 27.8801 130.639 29.1242 131.142C30.4329 131.667 32.0006 131.092 32.9498 130.049C33.899 129.007 34.3377 127.59 34.5678 126.195C35.2221 122.175 34.3736 117.983 35.3803 114.035C35.9341 111.885 37.0127 109.915 37.9188 107.894C38.8248 105.866 39.5655 103.687 39.3785 101.472Z" fill="#263238"/>
<path d="M38.2136 101.185C35.4595 101.163 32.7701 99.5523 31.4541 97.129C30.1381 94.7056 30.246 91.5703 31.7345 89.2476C31.9575 88.8952 32.2307 88.5501 32.619 88.3919C33.4388 88.0683 34.2874 88.7298 34.9202 89.3483C36.4375 90.8224 37.9548 92.3038 39.4721 93.7779" fill="#263238"/>
<path d="M38.3359 95.5038C34.9202 93.8858 32.2308 90.0602 31.2384 86.4144C30.2389 82.7685 31.3894 75.3834 32.3746 71.7303C33.5755 67.2863 35.4164 73.0031 36.9265 73.4706C37.8254 73.751 38.4582 74.5995 38.7242 75.4984C38.9903 76.3973 38.9615 77.3609 38.9328 78.3029C38.7314 84.0342 38.5301 89.7654 38.3359 95.4966" fill="#263238"/>
<path d="M47.073 59.2683C52.7899 56.1978 57.3705 58.0099 59.5998 59.7573C61.829 61.4976 63.1737 64.1582 63.9935 66.8621C64.8132 69.5731 65.1728 72.3991 65.8344 75.1461C66.3953 77.4616 66.3881 77.6054 66.7117 79.9641C67.0425 82.3227 66.9274 86.5223 65.7265 88.5717C64.5688 90.542 63.3175 92.2967 61.4119 93.5551C60.7216 94.0081 59.909 94.4755 59.1252 94.231C58.5571 94.0513 58.1687 93.5335 57.8308 93.0445C51.6321 84.1996 46.7494 74.4342 43.384 64.1654" fill="#263238"/>
<path d="M40.7161 65.8695L50.611 61.8785L53.1997 62.1662C59.0244 62.1662 63.0802 68.5662 63.1377 73.2907C63.2024 78.5329 63.0802 84.9401 62.2676 88.8089C60.628 96.5895 54.566 97.2871 54.566 97.2871C54.566 97.2727 54.6379 99.4084 54.7026 102.019C54.8177 106.707 50.9921 110.547 46.3035 110.447C41.8307 110.353 38.2496 106.714 38.2352 102.242L38.113 68.5374C38.1561 67.1064 39.2923 65.9415 40.7233 65.8624L40.7161 65.8695Z" fill="#FFBE9D"/>
<path d="M60.6138 78.49C60.6066 79.0221 60.1464 79.4536 59.5927 79.4536C59.039 79.4536 58.5931 79.0293 58.6003 78.4972C58.6075 77.965 59.0677 77.5336 59.6214 77.5336C60.1751 77.5336 60.621 77.9578 60.6138 78.49Z" fill="#263238"/>
<path d="M61.0739 75.973C60.9445 76.0952 60.211 75.4984 59.1251 75.4408C58.0465 75.3761 57.2195 75.8939 57.1117 75.7501C57.0541 75.6853 57.1979 75.4552 57.5575 75.2251C57.9099 74.995 58.5067 74.7793 59.1755 74.8152C59.8514 74.8512 60.4051 75.1316 60.7143 75.3977C61.0308 75.671 61.1386 75.9154 61.0739 75.9658V75.973Z" fill="#263238"/>
<path d="M54.4651 84.4439C54.4651 84.3792 55.1411 84.3001 56.2413 84.2138C56.5218 84.1994 56.7806 84.1563 56.8382 83.9693C56.9101 83.7751 56.8094 83.4659 56.6943 83.1423C56.4714 82.4592 56.2341 81.7473 55.9824 80.9994C54.9973 77.9432 54.2997 75.4408 54.422 75.4048C54.5442 75.3689 55.4431 77.8066 56.4283 80.8628C56.6656 81.6178 56.8885 82.3298 57.1042 83.0201C57.1905 83.3365 57.3559 83.7032 57.1905 84.1131C57.1042 84.3145 56.8957 84.4583 56.7159 84.4943C56.5361 84.5374 56.3779 84.5374 56.2413 84.5374C55.1411 84.5374 54.4579 84.5158 54.4579 84.4511L54.4651 84.4439Z" fill="#263238"/>
<path d="M54.566 97.2872C54.566 97.2872 49.2734 97.3663 44.2037 93.9578C44.2037 93.9578 46.7278 99.538 54.6163 99.1928L54.566 97.2872Z" fill="#EB996E"/>
<path d="M53.775 86.7883C53.3651 86.1554 52.7323 85.8606 52.0275 85.8678C51.5385 85.8678 51.0496 86.0763 50.7547 86.479C50.4599 86.8817 50.4024 87.5002 50.6756 87.946C50.9848 88.4494 51.6176 88.6292 52.157 88.5285C52.6963 88.4206 53.1493 88.0826 53.588 87.7447C53.7102 87.6512 53.8325 87.5505 53.9044 87.4139C53.9763 87.2772 53.8684 86.9249 53.7678 86.7883H53.775Z" fill="#EB996E"/>
<path d="M51.2439 85.0336C51.4236 85.0336 51.3661 86.2057 52.3297 87.0902C53.2933 87.9747 54.5517 87.91 54.5517 88.0754C54.5661 88.1473 54.2641 88.2911 53.732 88.2767C53.2142 88.2695 52.4663 88.061 51.8767 87.5217C51.287 86.9823 51.0569 86.2848 51.0425 85.803C51.0209 85.3068 51.1648 85.0264 51.2511 85.0336H51.2439Z" fill="#263238"/>
<path d="M60.9158 72.9456C60.7144 73.1829 59.981 72.888 59.0821 72.8305C58.1904 72.7442 57.421 72.9096 57.2556 72.6435C57.1837 72.5141 57.3203 72.2768 57.6583 72.0611C57.9962 71.8453 58.55 71.6799 59.1684 71.7303C59.7868 71.7806 60.3046 72.0323 60.6066 72.2984C60.9086 72.5644 61.0021 72.8233 60.9158 72.9384V72.9456Z" fill="#263238"/>
<path d="M48.6549 78.425C48.6261 78.9572 49.0576 79.4174 49.6113 79.4534C50.165 79.4893 50.6324 79.0938 50.6611 78.5617C50.6899 78.0295 50.2585 77.5693 49.7047 77.5334C49.151 77.4974 48.6764 77.9001 48.6549 78.425Z" fill="#263238"/>
<path d="M46.627 75.8435C46.7493 75.9729 47.5187 75.4192 48.6046 75.4408C49.6904 75.4408 50.4742 76.0089 50.5965 75.8795C50.654 75.8219 50.5318 75.5846 50.1866 75.3257C49.8486 75.0669 49.2733 74.8224 48.5974 74.8152C47.9214 74.8152 47.3533 75.0525 47.0225 75.3042C46.6846 75.5559 46.5695 75.7932 46.6342 75.8507L46.627 75.8435Z" fill="#263238"/>
<path d="M47.1017 72.4062C47.2887 72.6579 48.0365 72.4062 48.9354 72.4062C49.8343 72.3774 50.5893 72.5932 50.7691 72.3343C50.8482 72.212 50.7332 71.9603 50.4024 71.723C50.0788 71.4857 49.5323 71.2916 48.9138 71.2988C48.2954 71.3132 47.7561 71.5289 47.4469 71.7734C47.1233 72.0251 47.0226 72.2768 47.1017 72.399V72.4062Z" fill="#263238"/>
<path d="M49.4675 61.0516C46.9578 60.0449 43.125 60.3828 40.9749 62.0152C38.8248 63.6475 37.4801 66.2076 36.9911 68.861C36.5021 71.5217 37.1565 75.4552 37.8612 78.0655C41.9169 72.8377 46.0949 66.8116 50.0068 61.4831L49.4675 61.0516Z" fill="#263238"/>
<path d="M51.3876 58.6715C65.1369 56.7371 63.8641 77.5263 63.8641 77.5263C62.4906 69.8679 51.8263 61.8499 51.8263 61.8499L49.6618 61.4832L51.3876 58.6715Z" fill="#263238"/>
<path d="M38.9615 81.7977C38.9902 81.2152 38.3862 79.8058 37.8109 79.6836C36.2792 79.3672 33.5035 79.3528 33.2806 83.2647C32.9786 88.6076 38.4078 87.8094 38.4222 87.6584C38.4365 87.5361 38.868 83.8184 38.9615 81.7977Z" fill="#FFBE9D"/>
<path d="M37.6094 85.537C37.6094 85.537 37.5159 85.5946 37.3505 85.6593C37.1923 85.724 36.9262 85.7528 36.653 85.6305C36.0993 85.3932 35.675 84.4656 35.7038 83.502C35.7182 83.013 35.8476 82.56 36.0417 82.186C36.2287 81.8049 36.4948 81.546 36.7824 81.5101C37.0701 81.4597 37.257 81.6395 37.3146 81.7977C37.3793 81.9487 37.3361 82.0566 37.3649 82.0638C37.3793 82.0782 37.4871 81.9775 37.4512 81.7546C37.4368 81.6467 37.3793 81.5173 37.257 81.4094C37.1348 81.2943 36.9478 81.2368 36.7465 81.244C36.3294 81.244 35.9411 81.6107 35.7253 82.0206C35.488 82.4305 35.337 82.9483 35.3155 83.4948C35.2867 84.5734 35.7829 85.6161 36.5451 85.8822C36.9119 86.0045 37.2355 85.9038 37.408 85.7887C37.5806 85.6665 37.6166 85.5514 37.595 85.537H37.6094Z" fill="#EB996E"/>
<path d="M32.6696 69.0121C34.0359 65.3447 36.7972 62.3173 40.026 60.1024C41.7518 58.9159 43.679 57.9164 45.7644 57.6719C47.8498 57.4202 50.115 58.0242 51.4957 59.599L51.884 59.9946C49.5181 65.2368 47.857 69.6665 44.808 74.5492C43.6862 76.3397 43.2116 82.4449 42.9384 84.5375C42.0179 91.6925 38.106 94.7559 38.106 94.7559C29.635 94.7559 31.3033 72.6795 32.6696 69.0193V69.0121Z" fill="#263238"/>
<path d="M36.8115 93.9073C36.7971 93.9504 36.38 93.8642 35.7616 93.5693C35.1431 93.2745 34.3378 92.7424 33.6258 91.9657C32.9211 91.1891 32.4609 90.3334 32.2236 89.6934C31.9863 89.0462 31.9431 88.6219 31.9863 88.6147C32.0942 88.5716 32.5184 90.2255 33.8991 91.714C35.251 93.2242 36.8618 93.7994 36.8043 93.9073H36.8115Z" fill="#455A64"/>
<path d="M35.7973 100.868C35.7973 100.962 34.6611 100.868 33.5824 100.056C32.4966 99.2503 32.0939 98.1788 32.1874 98.1573C32.288 98.0997 32.7986 99.013 33.8125 99.7608C34.8049 100.523 35.826 100.76 35.8045 100.875L35.7973 100.868Z" fill="#455A64"/>
<path d="M32.2305 107.434C32.1442 107.491 31.6552 106.952 31.1375 106.226C30.6197 105.499 30.2674 104.859 30.3465 104.802C30.4328 104.744 30.9218 105.284 31.4395 106.01C31.9573 106.736 32.3096 107.376 32.2305 107.434Z" fill="#455A64"/>
<path d="M29.4764 115.531C29.3973 115.595 29.0234 115.293 28.6351 114.855C28.2468 114.409 27.9951 113.999 28.0742 113.927C28.1533 113.862 28.5272 114.164 28.9155 114.61C29.3038 115.056 29.5555 115.466 29.4764 115.538V115.531Z" fill="#455A64"/>
<path d="M31.1088 81.1146C31.1088 81.1146 31.4611 80.8845 32.1227 80.5249C32.4535 80.3523 32.8562 80.1294 33.3092 79.849C33.7622 79.5685 34.2944 79.2737 34.8481 78.8926C35.9771 78.1663 37.2643 77.2099 38.6162 76.0665C39.9537 74.9015 41.3488 73.5424 42.6863 71.9892C44.0094 70.4215 45.1312 68.8251 46.0661 67.3222C46.9793 65.8049 47.72 64.3811 48.2593 63.1514C48.5542 62.5474 48.7555 61.9721 48.9569 61.4831C49.1654 60.9941 49.3164 60.5555 49.4387 60.2031C49.6903 59.4912 49.8342 59.1029 49.8629 59.1101C49.8845 59.1101 49.7838 59.52 49.5753 60.2463C49.4746 60.613 49.3452 61.0517 49.151 61.555C48.964 62.0584 48.7771 62.6409 48.4966 63.2593C47.9861 64.5105 47.267 65.9559 46.3609 67.502C45.4333 69.0337 44.3043 70.6517 42.9739 72.2337C41.622 73.8013 40.2054 75.1748 38.8391 76.3326C37.4584 77.4759 36.1497 78.4179 34.9919 79.1227C34.431 79.4966 33.8845 79.7771 33.4171 80.0431C32.9497 80.3092 32.5326 80.5105 32.1874 80.6687C31.5043 80.9923 31.1231 81.1577 31.1088 81.129V81.1146Z" fill="#455A64"/>
<path d="M44.3332 74.7074C44.3332 74.7074 44.2109 74.9016 43.9377 75.218C43.6716 75.5344 43.2545 75.9586 42.7152 76.4692C41.6437 77.4831 40.0473 78.7775 38.1058 79.9281C36.157 81.0786 34.2586 81.8553 32.8491 82.3011C32.1444 82.524 31.5691 82.6822 31.1664 82.7685C30.7637 82.8548 30.5408 82.8908 30.5336 82.8692C30.5192 82.8117 31.3965 82.5672 32.7628 82.0566C34.1363 81.5532 35.9916 80.7478 37.9116 79.6117C39.8316 78.4755 41.4352 77.2386 42.5354 76.2822C43.6428 75.3258 44.2828 74.6786 44.326 74.7218L44.3332 74.7074Z" fill="#455A64"/>
<path d="M64.2881 81.5317C64.2881 81.5317 64.36 81.1074 64.511 80.3596C64.662 79.6117 64.8202 78.5115 64.8634 77.1524C64.9712 74.4486 64.4175 70.5798 62.3034 66.9771C60.1892 63.3816 57.0755 61.0157 54.6593 59.7933C53.4512 59.1677 52.4085 58.7722 51.6822 58.542C50.956 58.3047 50.5461 58.1969 50.5533 58.1609C50.5533 58.1465 50.6611 58.1609 50.8625 58.2041C51.0566 58.2472 51.3586 58.2904 51.7254 58.4054C52.4733 58.5996 53.5375 58.9591 54.7816 59.5632C57.2553 60.7425 60.4625 63.1227 62.627 66.7973C64.7843 70.4719 65.302 74.4342 65.1222 77.1668C65.0431 78.5474 64.8418 79.6477 64.6476 80.3955C64.5613 80.7695 64.4607 81.0499 64.4031 81.2441C64.3384 81.4382 64.3025 81.5389 64.2881 81.5317Z" fill="#455A64"/>
<path d="M128.015 130.143C127.648 130.517 127.562 131.344 127.778 131.811C127.993 132.279 128.41 132.624 128.849 132.897C129.568 132.157 130.172 131.301 130.618 130.366" fill="#EB996E"/>
<path d="M124.886 129.237C124.441 129.51 124.146 130.287 124.239 130.797C124.333 131.308 124.656 131.739 125.001 132.12C125.886 131.581 126.677 130.898 127.339 130.107" fill="#EB996E"/>
<path d="M53.9761 105.521C53.9761 105.521 77.6274 124.131 81.8916 124.742C86.1559 125.354 106.111 122.938 114.294 122.679L115.452 129.546C115.452 129.546 92.8507 137.219 84.6314 137.528C76.4121 137.83 71.6948 135.615 71.6948 135.615L56.3276 119.874L53.9833 105.521H53.9761Z" fill="#FFBE9D"/>
<path d="M113.769 122.75C113.769 122.75 124.333 121.248 125.973 122.067C127.612 122.887 132.329 126.871 132.329 126.871C132.329 126.871 133.897 131.293 132.912 131.502C131.927 131.71 130.898 130.071 130.898 130.071L129.561 127.612L123.664 126.173L113.87 127.036L113.769 122.75Z" fill="#FFBE9D"/>
<path d="M115.452 129.553C115.603 129.74 119.378 131.56 121.298 131.509C123.218 131.459 125.411 129.963 127.065 130.186C128.719 130.416 132.142 130.682 132.559 130.085C132.976 129.496 133.091 128.805 132.531 128.273C131.97 127.741 129.201 127.216 127.202 126.677C125.203 126.138 124.239 125.311 124.239 125.311L112.611 126.591L111.95 130.222L115.452 129.546V129.553Z" fill="#FFBE9D"/>
<path d="M120.479 125.195C120.479 125.195 120.694 125.152 121.09 125.152C121.478 125.167 122.053 125.203 122.736 125.354C124.124 125.605 125.929 126.332 127.921 127C128.928 127.331 129.892 127.554 130.798 127.676C131.251 127.748 131.732 127.856 132.085 128.173C132.437 128.489 132.552 128.942 132.516 129.323C132.487 129.711 132.279 130.028 132.034 130.208C131.797 130.387 131.538 130.459 131.337 130.474C130.92 130.495 130.726 130.344 130.733 130.33C130.74 130.294 130.949 130.395 131.315 130.33C131.661 130.28 132.229 129.963 132.25 129.309C132.265 129 132.15 128.64 131.876 128.417C131.603 128.18 131.193 128.086 130.747 128.029C129.834 127.921 128.813 127.698 127.806 127.367C125.778 126.691 124.016 125.936 122.672 125.62C121.334 125.267 120.471 125.275 120.471 125.21L120.479 125.195Z" fill="#EB996E"/>
<path d="M128.086 127.382C128.05 127.475 127.216 127.187 126.375 126.519C125.534 125.857 125.059 125.116 125.138 125.059C125.224 124.994 125.8 125.598 126.605 126.224C127.403 126.857 128.13 127.281 128.079 127.382H128.086Z" fill="#EB996E"/>
<path d="M33.5971 246.566L12.1607 256.115L14.7351 267.556C14.7351 267.556 41.6942 259.524 50.5319 257.733C59.3481 255.95 73.6367 253.677 77.6708 245.12L33.5899 246.558L33.5971 246.566Z" fill="#FFBE9D"/>
<path d="M16.7916 267.757L16.0438 267.959C16.0438 267.959 14.3251 282.01 11.9521 282.787L5.37231 257.546L13.7427 255.216C12.9804 259.423 13.9296 263.889 16.7916 267.757Z" fill="#FBDE3F"/>
<path d="M5.37231 257.546L7.41456 257.1L12.9732 281.456C12.9732 281.456 12.7791 282.707 11.9521 282.787L5.37231 257.546Z" fill="#263238"/>
<path d="M77.57 245.451C77.57 245.451 77.5268 245.667 77.3398 246.055C77.1673 246.443 76.8365 246.975 76.3115 247.587C75.2688 248.816 73.4423 250.276 71.0261 251.801C69.7965 252.548 68.3583 253.203 66.7834 253.785C65.2014 254.397 63.4324 254.763 61.6131 255.231C57.9601 256.151 53.9475 257.208 49.7407 258.316C41.3344 260.538 33.7335 262.544 28.1821 264.004C25.4423 264.701 23.2131 265.269 21.6311 265.672C20.8832 265.852 20.2864 265.996 19.8405 266.096C19.4306 266.19 19.2149 266.233 19.2077 266.219C19.2077 266.204 19.4162 266.139 19.8189 266.024C20.2576 265.902 20.8473 265.737 21.5879 265.528C23.1628 265.097 25.3776 264.493 28.103 263.745C33.6113 262.249 41.2122 260.171 49.6329 257.949C53.8396 256.841 57.8522 255.799 61.5196 254.893C63.3533 254.432 65.1079 254.08 66.6684 253.49C68.236 252.922 69.667 252.29 70.8823 251.57C73.3057 250.082 75.1394 248.665 76.1965 247.486C77.2751 246.307 77.5196 245.422 77.5628 245.451H77.57Z" fill="#EB996E"/>
<path d="M43.5207 153.521L44.0025 157.742C44.0025 157.742 36.5814 171.772 36.5814 179.301C36.5814 186.83 33.1584 246.76 33.1584 246.76C33.1584 246.76 73.4209 249.054 77.678 245.12L81.9351 241.194L96.3387 237.267L73.8668 155.268V150.875L43.5207 153.521Z" fill="#263238"/>
<path d="M71.0697 173.828C71.0697 173.828 71.0913 173.886 71.1128 173.994C71.1344 174.123 71.1632 174.289 71.1919 174.483C71.2567 174.95 71.3501 175.576 71.4652 176.374C71.7025 178.049 72.0333 180.423 72.4432 183.335C73.2845 189.21 74.5358 197.314 76.1466 206.217C77.7645 215.126 79.44 223.152 80.7128 228.947C81.3528 231.817 81.8778 234.154 82.2445 235.808C82.4171 236.592 82.5537 237.217 82.6544 237.677C82.6904 237.872 82.7263 238.03 82.7551 238.166C82.7767 238.274 82.7839 238.332 82.7767 238.339C82.7767 238.339 82.7479 238.289 82.7191 238.181C82.6832 238.051 82.64 237.893 82.5825 237.699C82.4675 237.246 82.3021 236.627 82.1007 235.851C81.6908 234.24 81.1227 231.91 80.454 229.019C79.1092 223.238 77.3978 215.213 75.7798 206.296C74.169 197.379 72.9537 189.267 72.1843 183.378C71.796 180.437 71.5084 178.049 71.3286 176.403C71.2423 175.605 71.1776 174.965 71.1272 174.504C71.1128 174.303 71.0985 174.145 71.0841 174.008C71.0769 173.893 71.0769 173.836 71.0841 173.836L71.0697 173.828Z" fill="#455A64"/>
<path d="M42.1475 181.336C42.1475 181.336 42.2194 181.494 42.3129 181.81C42.4136 182.163 42.5502 182.623 42.7228 183.191C43.0824 184.428 43.5929 186.154 44.2113 188.268C45.4842 192.547 47.3179 198.436 49.5686 204.865C51.8194 211.294 54.0558 217.046 55.7313 221.181C56.5655 223.216 57.2415 224.877 57.7376 226.071C57.9606 226.625 58.1403 227.063 58.277 227.401C58.3992 227.711 58.4567 227.869 58.4424 227.876C58.428 227.876 58.3489 227.725 58.2051 227.43C58.054 227.099 57.8527 226.661 57.601 226.129C57.0833 224.992 56.357 223.339 55.4868 221.282C53.7466 217.169 51.4743 211.423 49.2163 204.987C46.9655 198.551 45.1677 192.647 43.9597 188.34C43.3556 186.19 42.8882 184.442 42.5862 183.227C42.4424 182.652 42.3345 182.184 42.2482 181.832C42.1763 181.508 42.1403 181.343 42.1547 181.336H42.1475Z" fill="#455A64"/>
<path d="M75.2402 157.253C75.2402 157.253 74.8087 157.332 74.0321 157.404C73.2555 157.476 72.1265 157.562 70.7242 157.641C67.9341 157.814 64.0654 157.958 59.7939 157.979C55.5224 157.994 51.6537 157.879 48.8635 157.728C47.4685 157.656 46.3395 157.584 45.5557 157.519C44.7791 157.454 44.3476 157.404 44.3476 157.383C44.3476 157.354 44.7791 157.354 45.5629 157.375C46.4114 157.397 47.526 157.433 48.8707 157.469C51.668 157.548 55.5296 157.627 59.7939 157.606C64.0582 157.584 67.9197 157.476 70.7098 157.375C72.0618 157.325 73.1764 157.289 74.0177 157.253C74.8015 157.224 75.233 157.224 75.233 157.253H75.2402Z" fill="#455A64"/>
<path d="M54.6164 102.508C54.4222 102.048 68.8977 113.596 70.7171 119.22C72.5364 124.843 72.8456 141.066 72.8456 141.066L73.8595 151.479L44.9517 153.521L44.175 151.479L42.0393 145.675L39.0622 136.91C39.0622 136.91 31.9359 125.843 30.5265 121.075C28.7719 115.157 31.6843 109.095 31.6843 109.095L38.2209 101.717L54.6092 102.508H54.6164Z" fill="#FBDE3F"/>
<path d="M38.2278 102.249C38.2278 102.249 36.6242 99.272 37.6165 97.9776C38.4003 96.9493 52.3149 98.2365 55.1626 98.8405C56.8309 99.1929 55.1338 102.911 55.1338 102.911L38.2349 102.249H38.2278Z" fill="#FBDE3F"/>
<g opacity="0.3">
<path d="M46.5697 116.271C47.785 119.407 46.0664 129.15 45.8075 131.473C45.5414 133.796 44.887 136.047 44.2111 138.283C43.8947 139.319 43.5998 140.519 44.1895 141.433C45.1387 142.9 47.5837 142.483 48.763 143.777C46.5625 144.805 44.0241 145.1 41.6439 144.604C41.2268 144.518 40.7882 144.388 40.5149 144.057C40.3064 143.806 40.2345 143.468 40.1697 143.144C39.4866 139.736 39.1846 136.198 39.8389 132.775C40.4933 129.359 43.7581 121.154 46.4978 119.011" fill="black"/>
</g>
<path d="M47.0728 120.572C47.1662 120.6 46.7276 122.182 45.6849 123.908C44.6494 125.641 43.4557 126.77 43.391 126.706C43.3047 126.634 44.3546 125.411 45.3613 123.714C46.3824 122.031 46.9649 120.529 47.0728 120.572Z" fill="#263238"/>
<path d="M55.1628 102.558C55.1628 102.558 54.9326 102.644 54.5012 102.738C54.0697 102.831 53.4441 102.939 52.6603 103.047C51.0998 103.256 48.9138 103.407 46.512 103.292C44.103 103.169 41.9457 102.803 40.414 102.436C39.6446 102.256 39.0333 102.084 38.6162 101.94C38.1992 101.803 37.969 101.717 37.9762 101.688C37.9906 101.63 38.9326 101.875 40.4715 102.17C42.0104 102.472 44.1461 102.788 46.5335 102.91C48.9138 103.026 51.0783 102.925 52.6387 102.781C54.1992 102.637 55.1556 102.493 55.1699 102.551L55.1628 102.558Z" fill="#263238"/>
<path d="M65.3454 130.51C65.2807 130.488 65.5324 129.712 65.7265 128.424C65.9279 127.137 65.9998 125.325 65.6618 123.376C65.3094 121.42 64.6191 119.745 63.9863 118.609C63.3607 117.465 62.8573 116.825 62.9076 116.782C62.9292 116.768 63.0658 116.912 63.3103 117.192C63.5548 117.472 63.8712 117.904 64.2164 118.472C64.9139 119.594 65.669 121.305 66.0285 123.304C66.3809 125.311 66.2587 127.173 65.9854 128.468C65.856 129.115 65.7121 129.632 65.5755 129.978C65.4461 130.323 65.367 130.51 65.3382 130.503L65.3454 130.51Z" fill="#263238"/>
<g opacity="0.3">
<path d="M46.1885 103.054C43.9089 102.853 41.2339 102.58 39.0118 102.033C42.3197 103.802 46.3539 104.723 50.0716 104.248C51.4595 104.076 52.9264 103.68 53.8469 102.623C51.7184 103.457 48.4608 103.249 46.1813 103.047L46.1885 103.054Z" fill="black"/>
</g>
<g opacity="0.3">
<path d="M62.5046 133.817C65.1006 131.114 66.3806 127.194 65.8772 123.484C66.2727 124.936 66.3518 125.735 66.4094 127.238C66.4669 128.741 66.2871 130.179 65.4026 131.394C64.5181 132.609 64.0004 133.343 62.5046 133.817Z" fill="black"/>
</g>
<path d="M42.3554 109.943C39.256 107.362 34.5459 107.714 32.0866 110.907C31.9859 111.043 31.8853 111.18 31.7918 111.324C30.2888 113.575 26.154 148.631 27.8008 152.83C29.4475 157.03 31.8493 156.728 31.8493 156.728C31.8493 156.728 42.6933 156.606 50.4956 154.808C58.2978 153.01 66.9918 150.055 66.9918 150.055L65.5536 141.562C65.5536 141.562 46.4542 144.093 41.2048 143.489L43.2111 126.425C43.2111 126.425 47.7774 120.859 46.4686 115.761C45.8502 113.337 44.0668 111.36 42.3697 109.943H42.3554Z" fill="#FFBE9D"/>
<path d="M71.5653 136.349L75.8512 133.465L78.9361 130.862C78.9361 130.862 79.3172 132.149 78.3536 133.602C77.39 135.054 75.7864 137.226 75.7864 137.226L71.5653 136.341V136.349Z" fill="#FFBE9D"/>
<path d="M77.9654 134.608C77.9294 134.58 78.2099 134.278 78.5047 133.659C78.7923 133.055 79.0656 132.034 78.7852 130.905L79.044 130.984C78.1308 131.761 77.0881 132.653 75.9735 133.609H75.9663L75.9591 133.623C75.8872 133.674 75.8081 133.724 75.729 133.774C74.7726 134.407 73.8665 135.018 73.0252 135.572C72.1982 136.126 71.4431 136.615 70.7672 136.967C69.444 137.701 68.6171 138.139 68.5955 138.089C68.5667 138.046 69.3505 137.528 70.6305 136.737C71.2849 136.356 72.0184 135.845 72.8382 135.277C73.6723 134.709 74.5784 134.098 75.5204 133.458C75.5995 133.408 75.6786 133.35 75.7505 133.307L75.7362 133.321C76.8652 132.386 77.915 131.509 78.8427 130.74L79.044 130.574L79.1016 130.819C79.382 132.084 79.0296 133.127 78.6845 133.746C78.5047 134.062 78.3321 134.278 78.1955 134.414C78.0661 134.551 77.987 134.616 77.9726 134.608H77.9654Z" fill="#EB996E"/>
<path d="M70.019 143.583C70.1629 143.295 81.4384 130.725 84.2213 127.633C84.5808 127.231 85.1705 127.123 85.6595 127.367C86.3642 127.727 86.544 128.654 86.0118 129.244L71.5723 145.302L70.0262 143.59L70.019 143.583Z" fill="#263238"/>
<path d="M82.021 138.096C82.4812 137.471 81.7909 136.241 81.1509 135.903C80.5109 135.565 77.9653 136.974 77.9653 136.974L77.0376 137.061C77.0376 137.061 72.083 136.061 71.9176 136.14C71.8529 136.176 69.9329 136.967 68.3437 138.298C67.826 138.729 67.4089 139.261 67.0421 139.829C66.661 140.404 65.7406 141.361 63.5833 141.879L65.683 150.414C65.683 150.414 70.2853 149.329 70.6376 149.329C70.9828 149.329 74.8444 149.012 75.3549 148.926C75.8655 148.84 78.0444 148.164 79.6911 146.934C81.3451 145.704 80.5684 144.662 80.5684 144.662C82.2799 143.504 80.9424 142.353 80.9424 142.353L81.417 141.541C82.1217 140.239 80.6979 139.52 80.6979 139.52C80.6979 139.52 81.5536 138.736 82.0138 138.111L82.021 138.096Z" fill="#FFBE9D"/>
<path d="M78.598 140.743C78.5693 140.649 79.1086 140.405 79.7198 140.023C80.3311 139.649 80.7985 139.276 80.8704 139.347C80.9351 139.412 80.5612 139.916 79.9068 140.318C79.2524 140.721 78.6268 140.829 78.6052 140.743H78.598Z" fill="#EB996E"/>
<path d="M80.0436 143.058C79.9861 142.986 80.1587 142.742 80.4391 142.511C80.7196 142.281 80.9928 142.159 81.0504 142.231C81.1079 142.303 80.9353 142.547 80.6549 142.778C80.3744 143.008 80.1012 143.13 80.0436 143.058Z" fill="#EB996E"/>
<path d="M79.5331 144.949C79.5259 144.856 79.8135 144.748 80.1443 144.618C80.4823 144.489 80.7628 144.381 80.8203 144.46C80.8778 144.532 80.6549 144.798 80.2666 144.942C79.8783 145.093 79.5403 145.043 79.5331 144.949Z" fill="#EB996E"/>
<path d="M77.9653 136.974C77.9725 137.082 76.8004 137.233 75.355 137.341C73.9096 137.442 72.759 137.571 72.7303 137.485C72.7015 137.37 73.8664 137.068 75.319 136.967C76.7716 136.859 77.9509 136.874 77.9581 136.967L77.9653 136.974Z" fill="#EB996E"/>
<path d="M41.4494 143.338C41.5285 143.41 40.6728 144.511 39.5366 145.798C38.4004 147.092 37.4152 148.077 37.3433 148.013C37.2642 147.948 38.12 146.84 39.2561 145.553C40.3923 144.259 41.3775 143.274 41.4494 143.338Z" fill="#EB996E"/>
<path d="M46.2887 120.154C46.2527 120.147 46.339 119.773 46.4038 119.083C46.4685 118.4 46.5188 117.393 46.2671 116.199C46.0154 115.006 45.4114 113.654 44.4334 112.359C43.4914 111.051 42.1035 109.871 40.3993 109.123C38.7022 108.383 36.8541 108.225 35.3368 108.793C33.7907 109.267 32.6474 110.245 32.0433 111.31C31.4249 112.359 31.1804 113.337 31.015 114.006C30.8568 114.675 30.7993 115.056 30.7633 115.049C30.7489 115.049 30.7561 114.948 30.7633 114.768C30.7777 114.589 30.7993 114.315 30.864 113.977C30.9862 113.294 31.1948 112.288 31.806 111.18C32.1152 110.626 32.5467 110.065 33.1292 109.591C33.7116 109.116 34.4235 108.735 35.2145 108.469C36.7894 107.858 38.7741 108.009 40.5359 108.785C42.2977 109.562 43.7431 110.799 44.6995 112.158C45.6775 113.496 46.2887 114.905 46.5116 116.149C46.7417 117.393 46.6483 118.421 46.5332 119.105C46.4757 119.45 46.4181 119.716 46.3606 119.888C46.3103 120.068 46.2815 120.154 46.2671 120.154H46.2887Z" fill="#263238"/>
<path d="M99.6316 86.1698H70.1485C68.9404 86.1698 67.9552 87.1478 67.9552 88.3631V116.94C67.9552 118.148 68.9332 119.133 70.1485 119.133H81.0069L85.2496 125.145L88.9314 119.133H99.6388C100.847 119.133 101.832 118.155 101.832 116.94V88.3631C101.832 87.155 100.854 86.1698 99.6388 86.1698H99.6316Z" fill="#FAFAFA"/>
<path d="M99.6317 86.1698C99.6317 86.1698 99.9481 86.1051 100.502 86.3136C100.775 86.4215 101.091 86.6228 101.372 86.9536C101.645 87.2844 101.875 87.7662 101.882 88.3415C101.897 90.5779 101.911 93.821 101.933 97.8911C101.947 101.983 101.954 106.909 101.976 112.496C101.976 113.891 101.976 115.337 101.983 116.811C102.026 117.587 101.645 118.414 100.962 118.875C100.624 119.105 100.229 119.248 99.8187 119.284C99.4088 119.306 99.042 119.284 98.6465 119.299C95.54 119.299 92.2897 119.306 88.9243 119.313L89.0753 119.227C87.9104 121.132 86.6663 123.16 85.4007 125.239L85.2569 125.476L85.0987 125.246C83.7468 123.34 82.3158 121.305 80.856 119.241L81.007 119.32C78.5764 119.32 76.002 119.32 73.3917 119.32C72.2052 119.313 71.069 119.342 69.8609 119.299C69.2353 119.227 68.6456 118.889 68.2645 118.393C67.869 117.911 67.7324 117.228 67.7683 116.652C67.7683 114.359 67.7683 112.101 67.7683 109.879C67.7683 105.442 67.7755 101.156 67.7827 97.0786C67.7827 95.0363 67.7827 93.0516 67.7899 91.1172C67.7899 90.1464 67.7899 89.1972 67.7971 88.2552C67.8259 87.2413 68.5881 86.3352 69.5373 86.0979C70.0191 85.9685 70.4794 86.0332 70.918 86.0188C71.3639 86.0188 71.8025 86.0188 72.2412 86.0188C73.1185 86.0188 73.9742 86.0188 74.8155 86.0188C76.4982 86.0188 78.1162 86.026 79.6551 86.0332C85.8106 86.0547 90.8011 86.0763 94.2672 86.0907C95.9787 86.1051 97.3162 86.1195 98.2367 86.1266C98.6753 86.1338 99.0205 86.141 99.2722 86.1482C99.5023 86.1482 99.6245 86.1698 99.6245 86.1698C99.6245 86.1698 99.5023 86.1842 99.2722 86.1914C99.0205 86.1914 98.6825 86.1986 98.2367 86.2129C97.309 86.2201 95.9787 86.2345 94.2672 86.2489C90.8011 86.2633 85.8106 86.2849 79.6551 86.3064C78.109 86.3064 76.4982 86.3136 74.8155 86.3208C73.9742 86.3208 73.1113 86.3208 72.2412 86.3208C71.8025 86.3208 71.3639 86.3208 70.918 86.3208C70.4722 86.3352 70.0119 86.2777 69.6164 86.3927C68.7967 86.6013 68.1423 87.3851 68.1207 88.2624C68.1207 89.1972 68.1207 90.1464 68.1207 91.11C68.1207 93.0444 68.1207 95.0291 68.1279 97.0714C68.1279 101.149 68.1279 105.435 68.1423 109.871C68.1423 112.093 68.1423 114.351 68.1423 116.645C68.1135 117.213 68.2286 117.724 68.5594 118.155C68.8829 118.572 69.3719 118.86 69.9041 118.925C71.0187 118.954 72.2268 118.932 73.3917 118.939C76.002 118.939 78.5692 118.939 81.007 118.939H81.1005L81.158 119.018C82.6178 121.089 84.0488 123.117 85.3935 125.03H85.0915C86.3643 122.966 87.6083 120.931 88.7733 119.033L88.8236 118.946H88.9243C92.2969 118.946 95.5472 118.954 98.6465 118.961C99.0277 118.961 99.4304 118.968 99.7899 118.961C100.142 118.939 100.487 118.81 100.775 118.616C101.358 118.213 101.696 117.523 101.66 116.818C101.66 115.337 101.66 113.898 101.667 112.503C101.681 106.916 101.696 101.99 101.71 97.8983C101.731 93.8282 101.746 90.5851 101.76 88.3487C101.76 87.8022 101.552 87.3419 101.293 87.0183C101.027 86.6947 100.725 86.4934 100.466 86.3783C99.9337 86.1554 99.6173 86.1986 99.6245 86.177L99.6317 86.1698Z" fill="#263238"/>
<path d="M89.8234 107.017C89.8234 107.017 89.7515 107.024 89.622 107.031C89.4782 107.031 89.284 107.038 89.0395 107.045C88.5218 107.045 87.7955 107.06 86.8966 107.067C85.0701 107.074 82.5389 107.088 79.6984 107.096H79.6409L79.6337 107.038C79.5834 106.657 79.5258 106.254 79.4683 105.844C78.9865 102.357 78.555 99.2359 78.2746 97.2008L78.3177 97.2368C77.5052 97.2296 76.858 97.2224 76.3977 97.2224C76.182 97.2224 76.0166 97.2152 75.8872 97.2152C75.7721 97.2152 75.7146 97.208 75.7146 97.2008C75.7146 97.1937 75.7721 97.1936 75.8872 97.1865C76.0166 97.1865 76.182 97.1865 76.3977 97.1721C76.858 97.1721 77.5052 97.1577 78.3177 97.1505H78.3537V97.1865C78.6485 99.2215 79.0944 102.335 79.5977 105.823C79.6553 106.233 79.7128 106.635 79.7631 107.017L79.6984 106.959C82.5389 106.959 85.0629 106.966 86.8966 106.973C87.7955 106.981 88.5218 106.988 89.0395 106.988C89.284 106.988 89.4782 106.995 89.622 107.002C89.7515 107.002 89.8234 107.009 89.8234 107.017Z" fill="#263238"/>
<path d="M79.6264 107.225C79.5689 107.218 79.5258 107.175 79.5186 107.117L78.1667 97.3734L75.8871 97.3446C75.6858 97.3446 75.5923 97.3374 75.5851 97.208C75.5851 97.0713 75.6858 97.0641 75.8871 97.057L76.3977 97.0426L78.3536 97.021C78.4183 97.021 78.4759 97.0713 78.4831 97.1361L79.8781 106.83L89.6291 106.873C89.8664 106.873 89.9527 106.88 89.9599 107.009C89.9599 107.009 89.9599 107.009 89.9599 107.017C89.9599 107.146 89.8664 107.146 89.6291 107.16L89.0467 107.175L86.9037 107.196L79.648 107.232C79.648 107.232 79.6336 107.232 79.6264 107.232V107.225Z" fill="#263238"/>
<path d="M79.4106 104.931C79.4106 104.931 79.425 104.931 79.461 104.931C79.5041 104.931 79.5473 104.931 79.612 104.931C79.7558 104.931 79.9428 104.931 80.1945 104.917C80.7122 104.917 81.4457 104.902 82.359 104.895C84.2214 104.888 86.8174 104.874 89.8304 104.859L89.7657 104.91C89.9886 103.651 90.2259 102.292 90.4704 100.883C90.5999 100.156 90.7221 99.4445 90.8444 98.7685L90.9091 98.8476C87.4142 98.8476 84.3293 98.8404 82.1073 98.8404C81.0071 98.8404 80.1226 98.826 79.4969 98.826C79.2021 98.826 78.9648 98.8189 78.7922 98.8189C78.7203 98.8189 78.6556 98.8189 78.6124 98.8189C78.6628 98.8189 78.7203 98.8189 78.7922 98.8189C78.9648 98.8189 79.1949 98.8117 79.4969 98.8045C80.1154 98.8045 81.0071 98.7901 82.1001 98.7829C84.3221 98.7757 87.4071 98.7613 90.9019 98.7469H90.981L90.9666 98.826C90.8515 99.502 90.7221 100.214 90.5999 100.94C90.3554 102.35 90.1109 103.709 89.8951 104.967V105.025H89.8304C86.8174 105.025 84.2214 105.018 82.359 105.01C81.4385 105.01 80.705 104.996 80.1945 104.996C79.95 104.996 79.7558 104.989 79.612 104.989C79.5545 104.989 79.5041 104.989 79.461 104.989C79.425 104.989 79.4106 104.989 79.4106 104.989V104.931Z" fill="#263238"/>
<path d="M79.4105 105.061C79.3529 105.053 79.2738 105.025 79.2738 104.924C79.2738 104.802 79.4033 104.795 79.4464 104.787L80.1799 104.773L82.3444 104.751L89.6505 104.715L90.6572 98.9698L78.5907 98.9267C78.5332 98.9267 78.3965 98.9195 78.4037 98.7901C78.4037 98.6678 78.526 98.6606 78.5907 98.6534L79.4824 98.6319L83.9264 98.6031L90.9736 98.5743C91.0096 98.5743 91.0455 98.5887 91.0743 98.6175C91.0959 98.6462 91.1102 98.6894 91.103 98.7253L90.0028 104.996C89.9884 105.061 89.9381 105.104 89.8734 105.104L79.4464 105.061C79.4464 105.061 79.4248 105.061 79.4033 105.061H79.4105Z" fill="#263238"/>
<path d="M82.2368 109.771C82.2368 109.771 82.2224 109.677 82.1792 109.533C82.1361 109.382 82.0282 109.174 81.8053 109.008C81.5896 108.843 81.2372 108.757 80.8992 108.886C80.5613 109.001 80.2736 109.361 80.2808 109.778C80.2808 110.195 80.5684 110.554 80.9064 110.669C81.2444 110.799 81.5968 110.705 81.8125 110.54C82.0354 110.375 82.1361 110.159 82.1864 110.015C82.2296 109.864 82.2296 109.771 82.244 109.778C82.244 109.778 82.2655 109.871 82.244 110.029C82.2152 110.188 82.1145 110.432 81.8772 110.619C81.6471 110.813 81.2588 110.928 80.8705 110.785C80.4893 110.662 80.1514 110.252 80.1586 109.778C80.1586 109.303 80.4893 108.893 80.8705 108.764C81.2588 108.627 81.6471 108.742 81.8772 108.929C82.1145 109.116 82.2152 109.361 82.244 109.519C82.2727 109.684 82.2583 109.771 82.244 109.771H82.2368Z" fill="#263238"/>
<path d="M81.0505 110.964C80.9786 110.957 80.8995 110.936 80.8204 110.907C80.4177 110.777 80.015 110.346 80.015 109.771C80.015 109.203 80.4105 108.771 80.8204 108.635C81.2878 108.469 81.7193 108.635 81.9494 108.821C82.2514 109.059 82.3377 109.368 82.3593 109.483C82.3737 109.541 82.3881 109.67 82.3737 109.763C82.3881 109.857 82.3737 109.979 82.3593 110.044C82.3377 110.166 82.2514 110.468 81.9494 110.713C81.7552 110.871 81.4245 111.015 81.0433 110.957L81.0505 110.964ZM81.3597 108.958C81.2375 108.944 81.0937 108.951 80.9498 109.001C80.6766 109.095 80.4105 109.39 80.4177 109.771C80.4177 110.152 80.6838 110.447 80.9498 110.54C81.2663 110.662 81.5683 110.555 81.7337 110.432C81.9422 110.281 82.0285 110.08 82.0573 109.972C82.0788 109.893 82.086 109.835 82.0932 109.799C82.0932 109.792 82.0932 109.778 82.0932 109.771C82.0932 109.756 82.0932 109.749 82.0932 109.742C82.0932 109.706 82.0788 109.641 82.0573 109.569C82.0285 109.461 81.9422 109.267 81.7337 109.109C81.6402 109.037 81.5107 108.98 81.3597 108.958Z" fill="#263238"/>
<path d="M88.7517 109.764C88.7517 109.764 88.7373 109.67 88.6941 109.526C88.651 109.375 88.5431 109.167 88.3202 109.001C88.1045 108.836 87.7521 108.75 87.4141 108.879C87.0761 108.994 86.7885 109.354 86.7957 109.771C86.7957 110.188 87.0833 110.547 87.4213 110.662C87.7593 110.792 88.1117 110.698 88.3274 110.533C88.5503 110.368 88.651 110.152 88.7013 110.008C88.7445 109.857 88.7445 109.764 88.7588 109.771C88.7588 109.771 88.7804 109.864 88.7588 110.022C88.7301 110.181 88.6294 110.425 88.3921 110.612C88.162 110.806 87.7737 110.921 87.3854 110.777C87.0042 110.655 86.6663 110.245 86.6735 109.771C86.6735 109.296 87.0042 108.886 87.3854 108.757C87.7737 108.62 88.162 108.735 88.3921 108.922C88.6294 109.109 88.7301 109.354 88.7588 109.512C88.7876 109.677 88.7732 109.764 88.7588 109.764H88.7517Z" fill="#263238"/>
<path d="M87.5653 110.957C87.4934 110.95 87.4143 110.928 87.3352 110.9C86.9325 110.77 86.5298 110.339 86.5298 109.763C86.5298 109.195 86.9253 108.764 87.3352 108.627C87.8026 108.462 88.2341 108.627 88.4642 108.814C88.7662 109.052 88.8525 109.361 88.8741 109.476C88.8884 109.541 88.9028 109.663 88.8884 109.756C88.9028 109.85 88.8884 109.972 88.8741 110.037C88.8525 110.159 88.7662 110.461 88.4642 110.706C88.27 110.864 87.9392 111.008 87.5653 110.95V110.957ZM87.8745 108.951C87.7523 108.937 87.6084 108.944 87.4646 108.994C87.1914 109.088 86.9253 109.382 86.9325 109.763C86.9325 110.145 87.1985 110.439 87.4646 110.533C87.781 110.655 88.083 110.547 88.2484 110.425C88.457 110.274 88.5433 110.073 88.572 109.965C88.5936 109.886 88.6008 109.828 88.608 109.792C88.608 109.785 88.608 109.771 88.608 109.763C88.608 109.749 88.608 109.742 88.608 109.735C88.608 109.699 88.5936 109.634 88.572 109.562C88.5433 109.454 88.457 109.26 88.2484 109.102C88.155 109.03 88.0255 108.972 87.8745 108.951Z" fill="#263238"/>
<path d="M94.6053 99.8184C94.6053 101.695 93.088 103.213 91.2112 103.213C89.3343 103.213 87.817 101.695 87.817 99.8184C87.817 97.9415 89.3343 96.4242 91.2112 96.4242C93.088 96.4242 94.6053 97.9415 94.6053 99.8184Z" fill="#FF725E"/>
<path d="M89.2697 99.8903L89.7802 99.3869L90.7582 100.257L92.6854 98.4089L93.1528 98.9123L90.6863 101.235L89.2697 99.8903Z" fill="white"/>
</g>
<defs>
<clipPath id="clip0_98_343">
<rect width="316.742" height="304" fill="white"/>
</clipPath>
</defs>
</svg>
